<?xml version="1.0" encoding="utf-8"?>
<!-- Generator: Adobe Illustrator 13.0.2, SVG Export Plug-In . SVG Version: 6.00 Build 14948)  -->
<!DOCTYPE svg PUBLIC "-//W3C//DTD SVG 1.1//EN" "http://www.w3.org/Graphics/SVG/1.1/DTD/svg11.dtd">
<svg version="1.1" id="Ebene_1" xmlns="http://www.w3.org/2000/svg" xmlns:xlink="http://www.w3.org/1999/xlink" x="0px" y="0px"
	 width="566.93px" height="175.236px" viewBox="0 0 566.93 175.236" enable-background="new 0 0 566.93 175.236"
	 xml:space="preserve">
<polygon fill="#FFDD00" points="566.926,0 566.926,125.111 0,125.111 0,0 566.926,0 "/>
<path fill="#D50029" d="M99.7,22.468L81.587,47.075c0,0,93.9,0,98.717,0c4.99,0,4.924,1.896,2.485,5.2
	c-2.477,3.355-6.622,9.188-9.145,12.594c-1.28,1.729-3.595,4.879,4.076,4.879c8.11,0,40.369,0,40.369,0s6.507-8.855,11.96-16.257
	c7.421-10.069,0.644-31.023-25.883-31.023C180.423,22.468,99.7,22.468,99.7,22.468L99.7,22.468z"/>
<path fill="#D50029" d="M74.258,102.637l36.381-49.432c0,0,40.331,0,45.146,0c4.99,0,4.925,1.896,2.486,5.2
	c-2.477,3.355-6.69,9.125-9.213,12.532c-1.281,1.729-3.595,4.884,4.075,4.884c8.11,0,60.481,0,60.481,0
	c-5.029,6.891-21.346,26.816-50.642,26.816C139.229,102.637,74.258,102.637,74.258,102.637L74.258,102.637z"/>
<path fill="#D50029" d="M282.613,75.814l-19.729,26.822h-52.042c0,0,19.718-26.816,19.735-26.816L282.613,75.814L282.613,75.814z"/>
<polygon fill="#D50029" points="362.34,69.748 235.048,69.748 269.857,22.468 321.883,22.468 301.932,49.578 325.156,49.578 
	345.115,22.468 397.137,22.468 362.34,69.748 "/>
<path fill="#D50029" d="M357.871,75.821l-19.738,26.816h-52.021c0,0,19.717-26.816,19.734-26.816H357.871L357.871,75.821z"/>
<polygon fill="#D50029" points="0,86.395 76.668,86.395 72.48,92.092 0,92.092 0,86.395 "/>
<polygon fill="#D50029" points="0,75.821 84.457,75.821 80.261,81.51 0,81.51 0,75.821 "/>
<polygon fill="#D50029" points="0,96.975 68.883,96.975 64.715,102.637 0,102.637 0,96.975 "/>
<polygon fill="#D50029" points="566.93,92.092 490.557,92.092 494.748,86.396 566.93,86.396 566.93,92.092 "/>
<polygon fill="#D50029" points="566.93,102.637 482.793,102.645 486.959,96.975 566.93,96.975 566.93,102.637 "/>
<polygon fill="#D50029" points="502.527,75.821 566.93,75.821 566.93,81.513 498.34,81.518 502.527,75.821 "/>
<path fill="#D50029" d="M469.188,22.468l-34.803,47.28h-55.129c0,0,34.813-47.28,34.83-47.28H469.188L469.188,22.468z"/>
<path fill="#D50029" d="M374.795,75.821c0,0-3.803,5.198-5.65,7.695c-6.535,8.832-0.758,19.121,20.568,19.121
	c24.629,0,83.553,0,83.553,0L493,75.821H374.795L374.795,75.821z"/>
<polygon fill="#FFDD00" points="0,145.451 566.928,145.451 566.928,148.285 0,148.285 0,145.451 "/>
<polygon fill="#FFDD00" points="0,158.676 566.928,158.676 566.928,161.51 0,161.51 0,158.676 "/>
<polygon fill="#FFDD00" points="0,171.898 566.928,171.898 566.928,174.732 0,174.732 0,171.898 "/>
<polygon fill="#D50029" points="190.371,174.732 207.433,174.732 210.156,171.041 197.459,171.041 204.579,161.393 216.142,161.393 
	218.866,157.701 207.303,157.701 213.617,149.145 226.315,149.145 229.039,145.453 211.978,145.453 190.371,174.732 "/>
<polygon fill="#D50029" points="211.31,174.732 216.546,174.732 234.392,162.316 234.218,174.732 239.716,174.732 239.757,159.422 
	260.319,145.453 255.345,145.453 238.977,156.695 239.156,145.453 233.92,145.453 233.761,159.506 211.31,174.732 "/>
<path fill-rule="evenodd" clip-rule="evenodd" fill="#D50029" d="M266.924,149.145h3.709c2.706,0,5.729,1.342,3.005,5.033
	c-2.848,3.859-7.211,5.16-9.916,5.16h-4.32L266.924,149.145L266.924,149.145z M243.678,174.732h4.363l8.636-11.703h4.276
	c5.498,0,12.48-2.307,17.278-8.809c4.922-6.67,1.277-8.768-4.962-8.768h-7.985L243.678,174.732L243.678,174.732z"/>
<path fill-rule="evenodd" clip-rule="evenodd" fill="#D50029" d="M268.805,174.732h4.364l9.596-13.004h2.618
	c2.313,0,3.752,0,3,2.852l-2.822,10.152h4.975l2.846-11.662c0.371-1.803,0.182-2.432-0.801-2.936l0.063-0.084
	c3.969-0.588,8.574-3.104,11.205-6.67c5.17-7.004,0.047-7.928-5.975-7.928h-7.461L268.805,174.732L268.805,174.732z
	 M292.051,149.145h4.189c4.016,0,4.871,1.678,2.92,4.32c-2.074,2.811-5.816,4.572-9.963,4.572h-3.709L292.051,149.145
	L292.051,149.145z"/>
<polygon fill="#D50029" points="295.055,174.732 312.115,174.732 314.84,171.041 302.143,171.041 309.262,161.393 320.824,161.393 
	323.549,157.701 311.986,157.701 318.301,149.145 330.998,149.145 333.723,145.453 316.662,145.453 295.055,174.732 "/>
<path fill="#D50029" d="M354.738,145.998c-1.566-0.713-3.719-1.049-5.727-1.049c-5.498,0-11.818,2.77-15.656,7.971
	c-6.717,9.102,7.705,7.299,2.875,13.842c-2.537,3.439-7.02,4.783-9.506,4.783c-2.227,0-4.225-0.84-5.275-1.428l-3.314,3.902
	c1.543,0.629,3.203,1.217,5.342,1.217c6.109,0,12.953-2.477,17.564-8.727c7.121-9.646-6.93-8.346-2.781-13.967
	c2.26-3.063,5.758-3.902,8.201-3.902c2.27,0,3.213,0.379,4.82,1.217L354.738,145.998L354.738,145.998z"/>
<path fill="#D50029" d="M376.557,145.998c-1.568-0.713-3.721-1.049-5.727-1.049c-5.498,0-11.818,2.77-15.656,7.971
	c-6.717,9.102,7.703,7.299,2.875,13.842c-2.539,3.439-7.02,4.783-9.508,4.783c-2.225,0-4.223-0.84-5.273-1.428l-3.316,3.902
	c1.543,0.629,3.205,1.217,5.344,1.217c6.107,0,12.953-2.477,17.564-8.727c7.119-9.646-6.93-8.346-2.781-13.967
	c2.26-3.063,5.758-3.902,8.201-3.902c2.27,0,3.213,0.379,4.818,1.217L376.557,145.998L376.557,145.998z"/>
</svg>
