<?xml version="1.0" encoding="utf-8"?>
<!-- Generator: Adobe Illustrator 15.0.2, SVG Export Plug-In  -->
<!DOCTYPE svg PUBLIC "-//W3C//DTD SVG 1.1//EN" "http://www.w3.org/Graphics/SVG/1.1/DTD/svg11.dtd" [
	<!ENTITY ns_flows "http://ns.adobe.com/Flows/1.0/">
]>
<svg version="1.1"
	 xmlns="http://www.w3.org/2000/svg" xmlns:xlink="http://www.w3.org/1999/xlink" xmlns:a="http://ns.adobe.com/AdobeSVGViewerExtensions/3.0/"
	 x="0px" y="0px" width="67px" height="17px" viewBox="0 0 67 17" overflow="visible" enable-background="new 0 0 67 17"
	 xml:space="preserve">
<defs>
</defs>
<g>
	<defs>
		<rect id="SVGID_8_" width="67" height="17.354"/>
	</defs>
	<clipPath id="SVGID_9_">
		<use xlink:href="#SVGID_8_"  overflow="visible"/>
	</clipPath>
	<path clip-path="url(#SVGID_9_)" fill="#336699" d="M55.04,3.503c-0.707-0.394-1.814-0.594-3.326-0.594
		c-0.75,0-1.5,0.06-2.254,0.177c-0.555,0.084-0.611,0.099-0.955,0.172c-0.709,0.155-0.818,0.863-0.818,0.863l-0.227,0.937
		c-0.129,0.597,0.211,0.572,0.363,0.527c0.309-0.093,0.475-0.187,1.107-0.33c0.604-0.136,1.24-0.239,1.746-0.235
		c0.746,0,1.312,0.082,1.689,0.239c0.377,0.165,0.564,0.444,0.564,0.845c0.002,0.096,0.004,0.185-0.031,0.264
		c-0.031,0.073-0.092,0.145-0.27,0.167c-1.062,0.063-1.826,0.16-2.746,0.295c-0.906,0.127-1.699,0.345-2.363,0.649
		c-0.707,0.313-1.236,0.733-1.602,1.265c-0.354,0.534-0.533,1.181-0.535,1.944c0,0.72,0.26,1.308,0.76,1.764
		c0.508,0.451,1.168,0.674,1.965,0.674c0.5-0.004,0.889-0.041,1.17-0.109c0.275-0.07,0.578-0.168,0.896-0.308
		c0.238-0.099,0.496-0.243,0.768-0.424c0.271-0.183,0.459-0.312,0.699-0.47l0.01,0.017l-0.066,0.3
		c-0.002,0.003-0.004,0.005-0.004,0.007l0.002,0.006c-0.08,0.361,0.139,0.661,0.496,0.698l0.004,0.006h0.031l0.002,0.001
		c0.238,0,1.053,0,1.432-0.001h0.266c0.018,0,0.02-0.006,0.027-0.012c0.363-0.044,0.715-0.342,0.799-0.698l1.359-5.868
		c0.029-0.138,0.055-0.297,0.068-0.481c0.018-0.186,0.037-0.337,0.031-0.448C56.1,4.512,55.745,3.897,55.04,3.503 M51.745,10.497
		c-0.232,0.145-0.477,0.27-0.73,0.376c-0.346,0.137-0.67,0.21-0.973,0.21c-0.465,0-0.818-0.065-1.059-0.204
		c-0.242-0.133-0.367-0.364-0.361-0.694c0-0.38,0.088-0.677,0.268-0.909c0.186-0.223,0.459-0.403,0.797-0.537
		c0.336-0.115,0.75-0.208,1.225-0.274c0.428-0.053,1.268-0.15,1.373-0.151c0.107,0,0.18-0.06,0.131,0.226
		c-0.021,0.124-0.266,1.12-0.377,1.571C52.006,10.246,51.825,10.442,51.745,10.497"/>
</g>
<g>
	<defs>
		<rect id="SVGID_7_" width="67" height="17.354"/>
	</defs>
	<clipPath id="SVGID_10_">
		<use xlink:href="#SVGID_7_"  overflow="visible"/>
	</clipPath>
	<path clip-path="url(#SVGID_10_)" fill="#043466" d="M31.646,3.039c-0.397,0-0.921,0.323-1.169,0.712c0,0-2.668,4.575-2.929,5.031
		c-0.143,0.247-0.288,0.091-0.313-0.001c-0.018-0.111-0.824-5-0.824-5c-0.092-0.393-0.504-0.73-1.018-0.729l-1.663,0.003
		c-0.403,0-0.653,0.32-0.563,0.709c0,0,1.272,7.209,1.52,8.902c0.125,0.938-0.012,1.105-0.012,1.105l-1.65,2.874
		c-0.241,0.39-0.108,0.709,0.292,0.709l1.927-0.002c0.399,0,0.927-0.315,1.167-0.708l7.414-12.544c0,0,0.71-1.071,0.055-1.062
		C33.436,3.046,31.646,3.039,31.646,3.039"/>
</g>
<g>
	<defs>
		<rect id="SVGID_6_" width="67" height="17.354"/>
	</defs>
	<clipPath id="SVGID_11_">
		<use xlink:href="#SVGID_6_"  overflow="visible"/>
	</clipPath>
	<path clip-path="url(#SVGID_11_)" fill="#043466" d="M8.233,5.589c-0.562,0.41-1.339,0.617-2.349,0.617H5.427
		c-0.402,0-0.657-0.32-0.566-0.711l0.561-2.416C5.506,2.69,5.907,2.368,6.311,2.371l0.609-0.003c0.712,0,1.252,0.121,1.619,0.364
		C8.896,2.967,9.08,3.338,9.072,3.84C9.083,4.594,8.795,5.177,8.233,5.589 M12.254,1.866c-0.232-0.451-0.578-0.818-1.021-1.094
		c-0.459-0.285-0.995-0.479-1.617-0.598C8.99,0.063,8.258,0.009,7.418,0L3.532,0.003C3.127,0.009,2.733,0.325,2.639,0.712
		l-2.62,11.394c-0.09,0.391,0.162,0.712,0.564,0.712h1.864c0.4,0,0.801-0.313,0.89-0.712l0.642-2.765
		c0.086-0.388,0.484-0.708,0.888-0.708h0.532c2.277-0.002,4.043-0.467,5.312-1.4c1.267-0.93,1.901-2.163,1.898-3.689
		C12.612,2.874,12.495,2.315,12.254,1.866"/>
</g>
<g>
	<defs>
		<rect id="SVGID_5_" width="67" height="17.354"/>
	</defs>
	<clipPath id="SVGID_12_">
		<use xlink:href="#SVGID_5_"  overflow="visible"/>
	</clipPath>
	<path clip-path="url(#SVGID_12_)" fill="#336699" d="M42.038,5.635c-0.557,0.406-1.34,0.61-2.348,0.61h-0.463
		c-0.4,0.003-0.658-0.32-0.566-0.708l0.559-2.418c0.084-0.383,0.49-0.708,0.885-0.705l0.611-0.003
		c0.717,0.003,1.252,0.124,1.621,0.36c0.361,0.242,0.537,0.614,0.539,1.111C42.877,4.638,42.596,5.22,42.038,5.635 M46.055,1.907
		c-0.232-0.45-0.58-0.815-1.023-1.097c-0.455-0.284-0.994-0.479-1.619-0.595c-0.617-0.109-1.354-0.171-2.189-0.172l-3.898,0.001
		c-0.4,0.007-0.791,0.323-0.887,0.711l-2.617,11.396c-0.096,0.388,0.164,0.711,0.558,0.708l1.868-0.002
		c0.398,0.002,0.801-0.318,0.896-0.706l0.629-2.764c0.09-0.389,0.494-0.714,0.896-0.708H39.2c2.281,0,4.049-0.468,5.314-1.401
		c1.264-0.938,1.896-2.166,1.896-3.695C46.407,2.917,46.295,2.355,46.055,1.907"/>
</g>
<g>
	<defs>
		<rect id="SVGID_4_" width="67" height="17.354"/>
	</defs>
	<clipPath id="SVGID_13_">
		<use xlink:href="#SVGID_4_"  overflow="visible"/>
	</clipPath>
	<path clip-path="url(#SVGID_13_)" fill="#043466" d="M21.228,3.494C20.521,3.1,19.416,2.9,17.902,2.9
		c-0.748,0-1.5,0.06-2.255,0.177c-0.555,0.085-0.61,0.1-0.955,0.173c-0.708,0.155-0.817,0.864-0.817,0.864l-0.227,0.934
		c-0.13,0.599,0.213,0.574,0.364,0.527c0.308-0.093,0.477-0.184,1.106-0.327c0.602-0.138,1.239-0.24,1.748-0.236
		c0.745,0,1.311,0.081,1.688,0.238c0.377,0.166,0.562,0.446,0.562,0.846c0.002,0.094,0.005,0.185-0.029,0.262
		c-0.031,0.075-0.091,0.146-0.269,0.168c-1.063,0.064-1.825,0.162-2.747,0.295c-0.907,0.127-1.7,0.346-2.363,0.649
		c-0.708,0.314-1.235,0.734-1.601,1.266c-0.356,0.534-0.534,1.182-0.534,1.942c0,0.723,0.258,1.308,0.759,1.765
		c0.507,0.45,1.167,0.673,1.963,0.673c0.499-0.003,0.888-0.04,1.169-0.109c0.275-0.069,0.578-0.169,0.896-0.307
		c0.239-0.1,0.495-0.244,0.768-0.425c0.271-0.181,0.461-0.31,0.702-0.468l0.008,0.015l-0.068,0.3c0,0.004-0.003,0.005-0.003,0.009
		l0.002,0.005c-0.078,0.36,0.139,0.66,0.497,0.695l0.003,0.007h0.032l0.001,0.004c0.238,0,1.052-0.002,1.433-0.004h0.266
		c0.019,0,0.021-0.005,0.027-0.011c0.365-0.045,0.714-0.34,0.797-0.696l1.36-5.871c0.03-0.136,0.056-0.296,0.07-0.48
		c0.018-0.186,0.038-0.338,0.032-0.447C22.291,4.503,21.933,3.889,21.228,3.494 M17.934,10.487
		c-0.231,0.146-0.475,0.271-0.732,0.377c-0.342,0.138-0.67,0.21-0.971,0.21c-0.461,0-0.818-0.065-1.059-0.205
		c-0.24-0.131-0.367-0.362-0.363-0.693c0-0.383,0.089-0.677,0.272-0.911c0.183-0.223,0.454-0.403,0.792-0.537
		c0.337-0.115,0.751-0.207,1.229-0.274c0.424-0.055,1.263-0.15,1.372-0.151c0.106,0,0.178-0.06,0.13,0.225
		c-0.021,0.125-0.263,1.121-0.375,1.572C18.195,10.237,18.016,10.435,17.934,10.487"/>
</g>
<g>
	<defs>
		<rect id="SVGID_3_" width="67" height="17.354"/>
	</defs>
	<clipPath id="SVGID_14_">
		<use xlink:href="#SVGID_3_"  overflow="visible"/>
	</clipPath>
	<path clip-path="url(#SVGID_14_)" fill="#336699" d="M61.458,0.136h-1.666c-0.002,0-0.002,0.001-0.002,0.001l-0.002-0.001
		c-0.373,0-0.748,0.284-0.863,0.646c-0.008,0.021-0.023,0.04-0.029,0.063c0,0-0.033,0.154-0.092,0.418l-2.299,10.426
		c-0.057,0.246-0.094,0.407-0.104,0.45l0.004,0.007c-0.078,0.358,0.139,0.65,0.49,0.688l0.012,0.017h1.729
		c0.377,0,0.752-0.289,0.865-0.651c0.01-0.02,0.021-0.038,0.027-0.058l2.496-11.295L62.02,0.845
		C62.104,0.458,61.856,0.136,61.458,0.136"/>
</g>
<g>
	<defs>
		<rect id="SVGID_2_" width="67" height="17.354"/>
	</defs>
	<clipPath id="SVGID_15_">
		<use xlink:href="#SVGID_2_"  overflow="visible"/>
	</clipPath>
	<path clip-path="url(#SVGID_15_)" fill="#336699" d="M63.985,2.436c-0.057,0.015-0.119,0.028-0.186,0.037
		c-0.068,0.011-0.129,0.016-0.18,0.016c-0.186,0-0.328-0.051-0.424-0.149c-0.096-0.1-0.143-0.26-0.143-0.479V0.897h-0.207V0.64
		h0.207V0.12h0.303v0.52h0.629v0.257h-0.629v0.826c0,0.096,0.004,0.169,0.008,0.222C63.37,2,63.381,2.049,63.409,2.096
		c0.023,0.043,0.057,0.074,0.098,0.095c0.041,0.02,0.105,0.03,0.191,0.03c0.051,0,0.102-0.008,0.154-0.023
		c0.057-0.013,0.094-0.025,0.119-0.037h0.016v0.275H63.985z"/>
</g>
<g>
	<defs>
		<rect id="SVGID_1_" width="67" height="17.354"/>
	</defs>
	<clipPath id="SVGID_16_">
		<use xlink:href="#SVGID_1_"  overflow="visible"/>
	</clipPath>
	<path clip-path="url(#SVGID_16_)" fill="#336699" d="M67,2.453h-0.307V1.42c0-0.077-0.004-0.152-0.01-0.226
		c-0.008-0.072-0.023-0.129-0.047-0.173c-0.023-0.047-0.059-0.082-0.105-0.105c-0.049-0.023-0.113-0.037-0.203-0.037
		c-0.084,0-0.168,0.021-0.256,0.066c-0.084,0.041-0.168,0.095-0.256,0.161c0.004,0.025,0.006,0.053,0.008,0.087
		c0.004,0.033,0.006,0.065,0.006,0.097v1.161h-0.307V1.42c0-0.08-0.004-0.156-0.012-0.228c-0.006-0.072-0.02-0.129-0.043-0.172
		c-0.025-0.047-0.061-0.083-0.109-0.106c-0.045-0.021-0.111-0.035-0.199-0.035c-0.086,0-0.168,0.021-0.252,0.063
		c-0.084,0.04-0.168,0.092-0.252,0.156v1.354h-0.305V0.64h0.305v0.201c0.096-0.078,0.193-0.14,0.287-0.184
		c0.094-0.044,0.193-0.067,0.303-0.067c0.121,0,0.229,0.025,0.312,0.078c0.086,0.052,0.15,0.124,0.195,0.217
		c0.121-0.104,0.234-0.18,0.336-0.226s0.209-0.069,0.324-0.069c0.201,0,0.348,0.061,0.443,0.181C66.95,0.892,67,1.061,67,1.276
		V2.453L67,2.453z"/>
</g>
</svg>
