<svg id="Ebene_1" data-name="Ebene 1" xmlns="http://www.w3.org/2000/svg" viewBox="0 0 102.06 28.89"><defs><style>.cls-1{fill:none;stroke-width:1.5px;}.cls-1,.cls-2{stroke:#222221;stroke-miterlimit:10;}.cls-2,.cls-3{fill:#222221;}</style></defs><title>Selbstabholer_Icon</title><line class="cls-1" x1="10.51" y1="9.07" y2="9.07"/><line class="cls-1" x1="10.51" y1="13.85" x2="1.24" y2="13.85"/><line class="cls-1" x1="10.59" y1="18.52" x2="2.24" y2="18.52"/><rect class="cls-2" x="35.69" y="14.67" width="7.69" height="5.13"/><polygon class="cls-2" points="50.94 16.92 42.81 22.79 42.81 11.17 42.81 11.17 50.94 16.92"/><path class="cls-3" d="M40.4,7.9l-13.49-6a.58.58,0,0,0-.45,0L13,7.9a.57.57,0,0,0-.32.58V24.05a.54.54,0,0,0,.31.49l13.5,6.17a.46.46,0,0,0,.23.05.44.44,0,0,0,.22-.05l13.5-6.17a.53.53,0,0,0,.32-.49V8.48A.59.59,0,0,0,40.4,7.9ZM20.82,11.61a.53.53,0,0,0-.3.48v5.27l-2.64-1.25V10.9L30.6,4.77l2.29,1ZM26.69,3,29.31,4.2,17.61,9.83l-3.07-1.4Zm-.54,26.34L13.72,23.7V9.24l3.08,1.41v5.8a.54.54,0,0,0,.31.49l3.72,1.76a.59.59,0,0,0,.23.05.52.52,0,0,0,.29-.09.55.55,0,0,0,.25-.45V12.84l4.55,2.08ZM26.69,14l-4.27-2L34.19,6.36l4.65,2.07Zm13,9.72L27.23,29.38V14.92L39.65,9.24Z" transform="translate(0.25 -1.88)"/><path class="cls-3" d="M77.85,6.67c-.19.47-3.7,8.83-3.73,8.91a2,2,0,0,1-1.92,1.13c-.39,0-1-.05-1.13-.48a.81.81,0,0,1,0-.55S75,6.28,75,6.28A2,2,0,0,1,77,5.15c.41,0,1.06.06,1.16.57a2,2,0,0,1-.27,1Zm3.39-1a3.55,3.55,0,0,0,.07-.57,1.8,1.8,0,0,0-.26-1,2.5,2.5,0,0,0-1.58-1,7.79,7.79,0,0,0-2.21-.12,6.71,6.71,0,0,0-1.84.33A6.55,6.55,0,0,0,74,4a4.73,4.73,0,0,0-2,2.21l-3.89,9.29A3.79,3.79,0,0,0,67.86,17a1.82,1.82,0,0,0,.21.79,1.7,1.7,0,0,0,.62.63,3.61,3.61,0,0,0,1.76.52,9.93,9.93,0,0,0,2.11-.05,6.34,6.34,0,0,0,1.85-.54,7.68,7.68,0,0,0,.74-.41A4.73,4.73,0,0,0,77.1,15.7c0-.06,3.62-8.65,3.73-8.9a6.35,6.35,0,0,0,.41-1.18Z" transform="translate(0.25 -1.88)"/><path class="cls-3" d="M86.17,9.73a5.11,5.11,0,0,1-.79-1.94,2.62,2.62,0,0,1,0-.73,2.26,2.26,0,0,1,.27-.95L85.68,6a1.68,1.68,0,0,1,.71-.61,2.3,2.3,0,0,1,.89-.23h.22a1.54,1.54,0,0,1,.79.16.61.61,0,0,1,.32.46,1.07,1.07,0,0,1-.09.56L88,7.62h2.74l.58-1.38c.56-1.33.33-2,.16-2.26a1,1,0,0,0-.13-.16,3.69,3.69,0,0,0-2.47-.88,7.36,7.36,0,0,0-4.11.91,5.44,5.44,0,0,0-1.34,1.08A4.8,4.8,0,0,0,83,10.33c.23.36.45.72.67,1.08.33.53.64,1.06.94,1.61A2.48,2.48,0,0,1,85,14.56a2.45,2.45,0,0,1-1.83,2.07,2.48,2.48,0,0,1-1.24,0,.82.82,0,0,1-.52-.42.84.84,0,0,1,0-.47,13.76,13.76,0,0,1,.61-1.57h-2.6l-.79,1.88a2.47,2.47,0,0,0-.16,1.37,1.41,1.41,0,0,0,.77,1,4.83,4.83,0,0,0,2.54.47,7.63,7.63,0,0,0,3.45-.83,5.59,5.59,0,0,0,2.54-2.84,1.86,1.86,0,0,0,.1-.25c.71-2-.67-3.8-1.61-5.28Z" transform="translate(0.25 -1.88)"/><path class="cls-3" d="M67.09,6.67A3.68,3.68,0,0,1,66.59,8,3,3,0,0,1,64.75,9.4a3.07,3.07,0,0,1-.68.06H62.43l1.72-4.08h1.36a2.54,2.54,0,0,1,1.31.25,1,1,0,0,1,.27,1ZM69.9,4a1.81,1.81,0,0,0-.81-.54,8.61,8.61,0,0,0-3-.31H62.08L55.75,18.25a.32.32,0,0,0,.29.44h2.53l2.64-6.3-1-.72h2.55A.32.32,0,0,1,63,12l-1,6.66h2.91S66,11.19,66,11.16a6.14,6.14,0,0,0,1.63-.89,7.57,7.57,0,0,0,.9-.8,6.73,6.73,0,0,0,1.15-1.69,6.16,6.16,0,0,0,.52-1.57A2.7,2.7,0,0,0,69.9,4Z" transform="translate(0.25 -1.88)"/><path class="cls-3" d="M101.5,3.14H94.34L88,18.25a.31.31,0,0,0,.29.44H95.8l.94-2.23h-5s1.7-4.08,1.71-4.08l-1-.72h4.48l.75-1.79a.32.32,0,0,0-.3-.44H94.71l1.7-4.06H101l.75-1.8a.32.32,0,0,0-.29-.44Z" transform="translate(0.25 -1.88)"/><path class="cls-3" d="M55.77,22.82a.09.09,0,0,1,.1-.1h2.68c1.49,0,2.19.73,2.19,1.82a1.56,1.56,0,0,1-.8,1.47v0a1.61,1.61,0,0,1,.92,1.55c0,1.36-.9,2-2.38,2H55.87a.09.09,0,0,1-.1-.1Zm2.6,2.7c.56,0,.9-.3.9-.8s-.34-.8-.9-.8h-1a.05.05,0,0,0-.06.06v1.48a.05.05,0,0,0,.06.06Zm-1,2.86h1.13a.86.86,0,1,0,0-1.71H57.32a.05.05,0,0,0-.06.06v1.59A.05.05,0,0,0,57.32,28.38Z" transform="translate(0.25 -1.88)"/><path class="cls-3" d="M61.93,22.82a.1.1,0,0,1,.11-.1h1.28a.09.09,0,0,1,.1.1v6.66a.09.09,0,0,1-.1.1H62a.1.1,0,0,1-.11-.1Z" transform="translate(0.25 -1.88)"/><path class="cls-3" d="M64.73,22.82a.09.09,0,0,1,.1-.1h1.29a.09.09,0,0,1,.1.1v3l2.28-3a.18.18,0,0,1,.17-.09h1.47c.06,0,.09.07,0,.13l-2.08,2.6,2.27,4c0,.07,0,.12-.06.12H68.82a.14.14,0,0,1-.15-.09l-1.55-2.88-.9,1.13v1.74a.09.09,0,0,1-.1.1H64.83a.09.09,0,0,1-.1-.1Z" transform="translate(0.25 -1.88)"/><path class="cls-3" d="M71.25,22.82a.09.09,0,0,1,.1-.1h4.4a.09.09,0,0,1,.1.1V23.9a.09.09,0,0,1-.1.1h-3a.05.05,0,0,0-.06.06v1.36a.05.05,0,0,0,.06.06h2.47a.09.09,0,0,1,.1.1v1.08a.09.09,0,0,1-.1.1H72.79a.05.05,0,0,0-.06.06v1.42a.05.05,0,0,0,.06.06h3a.09.09,0,0,1,.1.1v1.08a.09.09,0,0,1-.1.1h-4.4a.09.09,0,0,1-.1-.1Z" transform="translate(0.25 -1.88)"/><path class="cls-3" d="M78.66,29.58a.09.09,0,0,1-.1-.1V23.62c0-.05,0-.06-.06-.06H76.62a.1.1,0,0,1-.1-.11v-.63a.09.09,0,0,1,.1-.1H81.4a.09.09,0,0,1,.1.1v.63a.1.1,0,0,1-.1.11H79.52s-.06,0-.06.06v5.86a.09.09,0,0,1-.1.1Z" transform="translate(0.25 -1.88)"/><path class="cls-3" d="M82.27,28.09a5.94,5.94,0,0,1-.18-1.94,6,6,0,0,1,.18-1.94,2.26,2.26,0,0,1,2.33-1.6A2.28,2.28,0,0,1,87,24.21a6,6,0,0,1,.18,1.94A5.94,5.94,0,0,1,87,28.09,2.29,2.29,0,0,1,84.6,29.7,2.26,2.26,0,0,1,82.27,28.09Zm3.8-.25a6,6,0,0,0,.15-1.69,6,6,0,0,0-.15-1.69,1.55,1.55,0,0,0-2.92,0A6,6,0,0,0,83,26.15a6,6,0,0,0,.15,1.69,1.55,1.55,0,0,0,2.92,0Z" transform="translate(0.25 -1.88)"/><path class="cls-3" d="M93.4,29.58c-.06,0-.09,0-.11-.1l-1.46-5.12h0l-1.46,5.12a.13.13,0,0,1-.12.1h-.55a.11.11,0,0,1-.11-.1l-1.66-6.66c0-.06,0-.1.08-.1h.67a.11.11,0,0,1,.12.1L90,27.92h0l1.42-5.1a.13.13,0,0,1,.12-.1h.52c.07,0,.1,0,.12.1l1.46,5.1h0l1.19-5.1a.12.12,0,0,1,.13-.1h.66c.07,0,.09,0,.08.1l-1.66,6.66a.12.12,0,0,1-.12.1Z" transform="translate(0.25 -1.88)"/><path class="cls-3" d="M96.83,22.82a.09.09,0,0,1,.1-.1h.65a.16.16,0,0,1,.17.1L100.86,28h0V22.82a.09.09,0,0,1,.1-.1h.64a.09.09,0,0,1,.1.1v6.66a.09.09,0,0,1-.1.1H101a.17.17,0,0,1-.17-.1L97.7,24.35h0v5.13a.09.09,0,0,1-.1.1h-.64a.09.09,0,0,1-.1-.1Z" transform="translate(0.25 -1.88)"/></svg>