<?xml version="1.0" encoding="utf-8"?>
<!-- Generator: Adobe Illustrator 15.0.2, SVG Export Plug-In  -->
<!DOCTYPE svg PUBLIC "-//W3C//DTD SVG 1.1//EN" "http://www.w3.org/Graphics/SVG/1.1/DTD/svg11.dtd" [
	<!ENTITY ns_flows "http://ns.adobe.com/Flows/1.0/">
]>
<svg version="1.1"
	 xmlns="http://www.w3.org/2000/svg" xmlns:xlink="http://www.w3.org/1999/xlink" xmlns:a="http://ns.adobe.com/AdobeSVGViewerExtensions/3.0/"
	 x="0px" y="0px" width="76px" height="24px" viewBox="0 0 76 24" overflow="visible" enable-background="new 0 0 76 24"
	 xml:space="preserve">
<defs>
</defs>
<path id="path66_1_" fill="#EF8009" d="M25.136,0c-1.036,0-2.043,0.235-2.994,0.687c-1.356,0.64-2.58,1.704-3.578,3.125
	c-0.649,0.923-1.205,1.986-1.647,3.182c-0.819,2.25-0.81,4.076,0.028,5.281c0.48,0.678,1.469,1.497,3.483,1.497h0.009
	c3.671,0,6.411-2.401,8.143-7.146c0.461-1.252,1.064-3.596-0.038-5.178C27.866,0.489,26.727,0,25.136,0L25.136,0z M47.268,0
	c-1.035,0-2.043,0.235-2.993,0.687c-1.356,0.64-2.58,1.704-3.578,3.125c-0.649,0.923-1.205,1.986-1.647,3.182
	c-0.819,2.25-0.809,4.076,0.028,5.281c0.48,0.678,1.469,1.497,3.483,1.497h0.01c3.671,0,6.411-2.401,8.143-7.146
	c0.462-1.252,1.064-3.596-0.037-5.178C49.999,0.489,48.859,0,47.268,0z M13.359,0.198c-1.205,0-2.382,0-3.427,0.537
	c-1.055,0.537-1.977,1.6-2.692,3.737C7.089,4.933,7.004,5.328,6.995,5.667c-0.009,0.348,0.047,0.64,0.179,0.894
	c0.16,0.311,0.423,0.603,0.744,0.847c0.329,0.245,0.715,0.442,1.139,0.574c0.019,0,0.235,0.066,0.509,0.142
	C9.828,8.2,10.139,8.294,10.337,8.35c0.113,0.038,0.245,0.085,0.357,0.151c0.113,0.066,0.217,0.16,0.283,0.292
	c0.047,0.084,0.066,0.179,0.066,0.273c0,0.104-0.01,0.207-0.057,0.32c-0.094,0.292-0.245,0.48-0.527,0.593
	c-0.282,0.113-0.697,0.15-1.327,0.16h-7.88l-1.243,3.417h8.426c0.791,0,2.241,0,3.643-0.593c1.394-0.593,2.73-1.779,3.295-4.143
	c0.217-0.894,0.151-1.619-0.197-2.184c-0.349-0.564-0.979-0.979-1.902-1.243c0,0-0.207-0.056-0.452-0.132
	c-0.245-0.065-0.518-0.15-0.659-0.188c-0.235-0.066-0.415-0.207-0.527-0.376c-0.104-0.169-0.141-0.386-0.075-0.603
	c0.066-0.226,0.216-0.405,0.433-0.527c0.226-0.122,0.518-0.188,0.856-0.188h4.905c0.038-0.047,0.066-0.104,0.104-0.15
	c0.895-1.271,1.977-2.288,3.163-3.013h-7.663V0.198z M35.388,0.198c-2.184,0-3.803,1.102-4.575,3.172l-3.709,10.186h4.058
	l1.902-5.234h3.586l1.017-2.805h-3.578l0.574-1.619c0.123-0.292,0.405-0.518,0.829-0.518c0.235,0,2.871,0,4.227,0
	c0.037-0.047,0.065-0.104,0.104-0.15c0.895-1.271,2.165-2.288,3.352-3.013L35.388,0.198L35.388,0.198z M54.225,0.198l-4.857,13.349
	H53.5l1.77-4.698c0.085,0.198,1.13,4.698,1.13,4.698h4.34c0,0-0.791-3.314-1.374-4.651c-0.151-0.348-0.302-0.725-0.519-1.054
	c1.225-0.452,3.004-1.431,3.737-3.417c0.452-1.214,0.424-2.203-0.075-2.928c-0.611-0.875-1.845-1.309-3.794-1.309h-4.49V0.198z
	 M62.698,0.198c0.264,0.207,0.489,0.442,0.678,0.715c0.48,0.697,0.669,1.516,0.556,2.457h2.457l-3.709,10.186h3.699l3.71-10.186
	h4.754L76,0.198H62.698z M56.946,2.956h0.678c1.243,0,1.714,0.367,1.29,1.506c-0.396,1.063-1.111,1.723-2.467,1.723h-0.009h-0.697
	L56.946,2.956L56.946,2.956z M24.166,3.022L24.166,3.022c1.271,0,1.563,0.734,0.442,3.784l0,0c-1.148,3.135-1.977,3.917-3.229,3.917
	l0,0c-1.214,0-1.647-0.772-0.508-3.888C21.728,4.509,22.829,3.022,24.166,3.022L24.166,3.022z M46.298,3.022L46.298,3.022
	c1.271,0,1.563,0.734,0.442,3.784c-1.139,3.135-1.977,3.917-3.22,3.917l0,0c-1.214,0-1.647-0.772-0.508-3.888
	C43.86,4.509,44.961,3.022,46.298,3.022L46.298,3.022z"/>
<path id="path98_1_" fill="#393B42" d="M4.02,14.959c-0.264,0-0.452,0.047-0.584,0.141s-0.235,0.264-0.329,0.508
	c-0.085,0.235-0.094,0.396-0.038,0.49c0.057,0.094,0.217,0.141,0.48,0.141c0.263,0,0.461-0.047,0.583-0.141
	c0.132-0.094,0.235-0.264,0.32-0.499c0.085-0.235,0.104-0.396,0.038-0.489C4.443,15.006,4.283,14.959,4.02,14.959z M6.251,14.959
	c-0.264,0-0.461,0.047-0.583,0.141c-0.132,0.094-0.235,0.264-0.32,0.508c-0.084,0.235-0.094,0.396-0.038,0.49
	s0.217,0.141,0.48,0.141c0.264,0,0.461-0.047,0.593-0.141s0.235-0.264,0.33-0.499c0.084-0.235,0.104-0.396,0.038-0.489
	C6.675,15.006,6.515,14.959,6.251,14.959z M48.049,16.701c-0.301,0-0.603,0.038-0.903,0.113c-0.302,0.075-0.584,0.198-0.838,0.358
	s-0.489,0.357-0.697,0.603c-0.207,0.245-0.366,0.518-0.479,0.838c-0.104,0.273-0.15,0.518-0.132,0.715
	c0.01,0.198,0.057,0.367,0.132,0.518c0.075,0.142,0.179,0.273,0.311,0.377c0.132,0.103,0.264,0.197,0.414,0.282
	c0.15,0.084,0.292,0.16,0.434,0.235c0.141,0.075,0.263,0.15,0.357,0.235c0.104,0.084,0.169,0.179,0.217,0.282
	c0.047,0.104,0.037,0.235-0.02,0.386c-0.047,0.132-0.112,0.245-0.197,0.357c-0.085,0.104-0.188,0.198-0.302,0.264
	c-0.112,0.076-0.244,0.132-0.396,0.169c-0.141,0.038-0.301,0.057-0.461,0.057c-0.254,0-0.461-0.028-0.631-0.084
	c-0.169-0.057-0.311-0.123-0.424-0.188c-0.112-0.066-0.197-0.132-0.264-0.188c-0.065-0.056-0.122-0.084-0.169-0.084
	c-0.038,0-0.066,0.009-0.104,0.028c-0.028,0.019-0.065,0.047-0.094,0.094c-0.028,0.047-0.066,0.104-0.095,0.179
	s-0.065,0.16-0.104,0.264c-0.057,0.16-0.094,0.282-0.104,0.357c-0.01,0.085,0,0.151,0.028,0.188c0.028,0.047,0.085,0.094,0.16,0.15
	c0.075,0.057,0.188,0.113,0.32,0.169c0.132,0.057,0.292,0.094,0.471,0.132s0.386,0.057,0.621,0.057c0.339,0,0.668-0.047,0.998-0.132
	c0.329-0.084,0.64-0.226,0.922-0.396c0.283-0.179,0.547-0.395,0.772-0.659s0.404-0.565,0.527-0.913
	c0.094-0.264,0.141-0.499,0.132-0.697c-0.01-0.198-0.057-0.367-0.132-0.508c-0.085-0.142-0.188-0.273-0.32-0.377
	s-0.273-0.198-0.424-0.282c-0.15-0.085-0.292-0.16-0.433-0.235c-0.142-0.075-0.264-0.151-0.377-0.235
	c-0.104-0.085-0.179-0.179-0.217-0.282c-0.037-0.104-0.037-0.235,0.02-0.386c0.037-0.094,0.085-0.188,0.16-0.282
	c0.065-0.085,0.15-0.16,0.244-0.226c0.095-0.066,0.207-0.113,0.33-0.15c0.122-0.038,0.254-0.057,0.404-0.057
	c0.188,0,0.349,0.019,0.489,0.066c0.142,0.047,0.264,0.094,0.358,0.15c0.094,0.057,0.179,0.104,0.244,0.16
	c0.066,0.047,0.113,0.075,0.151,0.075c0.037,0,0.075-0.009,0.104-0.028c0.028-0.019,0.057-0.056,0.085-0.094
	c0.027-0.047,0.056-0.104,0.084-0.169s0.066-0.151,0.104-0.254c0.028-0.084,0.057-0.16,0.075-0.226
	c0.02-0.056,0.028-0.113,0.038-0.15s0.01-0.075,0-0.094c0-0.028-0.019-0.057-0.038-0.084c-0.019-0.028-0.075-0.076-0.16-0.132
	c-0.084-0.047-0.188-0.094-0.311-0.142c-0.122-0.038-0.254-0.075-0.404-0.094C48.36,16.71,48.209,16.701,48.049,16.701
	L48.049,16.701z M69.326,16.701c-0.518,0-1.026,0.084-1.507,0.245c-0.479,0.16-0.932,0.396-1.346,0.697s-0.781,0.668-1.102,1.102
	s-0.584,0.922-0.781,1.459c-0.188,0.527-0.282,0.998-0.282,1.412s0.094,0.772,0.282,1.054c0.188,0.292,0.461,0.508,0.818,0.659
	c0.358,0.15,0.81,0.226,1.337,0.226c0.179,0,0.367-0.01,0.546-0.028c0.188-0.019,0.377-0.047,0.565-0.075
	c0.188-0.038,0.376-0.075,0.556-0.123c0.179-0.047,0.339-0.094,0.461-0.141c0.132-0.047,0.226-0.104,0.292-0.179
	c0.065-0.075,0.113-0.169,0.15-0.273l0.96-2.636c0.028-0.066,0.038-0.132,0.038-0.179c0-0.056-0.01-0.094-0.028-0.131
	s-0.047-0.066-0.085-0.085c-0.037-0.019-0.085-0.028-0.132-0.028h-2.24c-0.028,0-0.066,0.009-0.094,0.028
	c-0.028,0.019-0.066,0.047-0.095,0.085s-0.065,0.094-0.094,0.16s-0.066,0.141-0.104,0.235c-0.066,0.188-0.095,0.32-0.095,0.396
	c0.01,0.075,0.038,0.113,0.104,0.113h1.252l-0.555,1.534c-0.15,0.066-0.311,0.123-0.462,0.151c-0.159,0.038-0.311,0.047-0.461,0.047
	c-0.311,0-0.574-0.047-0.791-0.15s-0.386-0.245-0.489-0.443c-0.113-0.197-0.16-0.433-0.16-0.725s0.075-0.622,0.217-0.998
	c0.122-0.348,0.292-0.659,0.489-0.941s0.433-0.527,0.688-0.734c0.264-0.207,0.536-0.357,0.838-0.471
	c0.301-0.113,0.611-0.169,0.932-0.169c0.302,0,0.556,0.028,0.763,0.094s0.377,0.132,0.518,0.198c0.142,0.075,0.245,0.141,0.32,0.198
	c0.075,0.066,0.141,0.094,0.179,0.094c0.028,0,0.057-0.01,0.085-0.028c0.028-0.019,0.057-0.047,0.094-0.094
	c0.028-0.047,0.066-0.104,0.095-0.169c0.037-0.075,0.065-0.16,0.104-0.254c0.065-0.17,0.104-0.302,0.112-0.386
	c0.01-0.085,0-0.151-0.028-0.198s-0.094-0.104-0.179-0.169c-0.094-0.066-0.216-0.123-0.376-0.179
	c-0.151-0.057-0.339-0.104-0.565-0.142C69.872,16.719,69.618,16.701,69.326,16.701z M27.442,16.785c-0.179,0-0.311,0-0.414,0.01
	c-0.104,0.009-0.179,0.028-0.235,0.066c-0.057,0.038-0.094,0.094-0.113,0.16c-0.019,0.066-0.038,0.169-0.057,0.292l-0.603,5.78
	c-0.009,0.084-0.009,0.15,0,0.198c0.009,0.047,0.047,0.084,0.104,0.113c0.057,0.028,0.141,0.047,0.264,0.047
	c0.113,0.009,0.273,0.009,0.471,0.009c0.188,0,0.339,0,0.461-0.009c0.113-0.01,0.216-0.028,0.292-0.057
	c0.076-0.028,0.142-0.066,0.188-0.113c0.047-0.047,0.094-0.113,0.141-0.188l2.542-4.189h0.009l-0.471,4.199
	c-0.009,0.085-0.009,0.151,0,0.198c0.01,0.047,0.047,0.085,0.104,0.113c0.057,0.028,0.142,0.047,0.264,0.047
	c0.113,0.009,0.273,0.009,0.461,0.009c0.169,0,0.32,0,0.433-0.009c0.113-0.009,0.216-0.028,0.292-0.047
	c0.085-0.028,0.151-0.065,0.198-0.113c0.057-0.047,0.104-0.113,0.16-0.198l3.625-5.771c0.075-0.123,0.132-0.226,0.16-0.301
	c0.028-0.076,0.038-0.132,0.009-0.169c-0.028-0.038-0.075-0.057-0.16-0.066c-0.084-0.01-0.198-0.01-0.348-0.01
	c-0.16,0-0.292,0-0.376,0.01c-0.094,0.009-0.169,0.028-0.226,0.047s-0.104,0.057-0.132,0.094s-0.066,0.084-0.094,0.141l-3.003,5.065
	h-0.009l0.583-5.046c0.009-0.066,0.009-0.123,0-0.16s-0.038-0.075-0.085-0.094c-0.047-0.019-0.113-0.038-0.207-0.047
	c-0.094-0.01-0.226-0.01-0.386-0.01c-0.151,0-0.283,0-0.376,0.01c-0.094,0.009-0.169,0.028-0.235,0.047s-0.113,0.057-0.151,0.094
	s-0.075,0.094-0.113,0.16l-3.041,5.046h-0.009l0.687-5.074c0.01-0.066,0.019-0.113,0.01-0.151c0-0.038-0.028-0.066-0.066-0.084
	c-0.038-0.019-0.104-0.028-0.198-0.038C27.734,16.785,27.602,16.785,27.442,16.785L27.442,16.785z M43.437,16.785
	c-0.132,0-0.235,0.01-0.33,0.019c-0.085,0.009-0.16,0.028-0.226,0.038c-0.057,0.019-0.104,0.038-0.142,0.066
	c-0.028,0.028-0.057,0.057-0.065,0.094l-2.278,6.26c-0.01,0.038-0.01,0.066,0,0.094s0.037,0.047,0.085,0.066
	c0.047,0.019,0.112,0.028,0.197,0.038s0.188,0.019,0.32,0.019s0.244-0.009,0.329-0.019s0.16-0.028,0.217-0.038
	c0.057-0.019,0.104-0.038,0.132-0.066s0.057-0.057,0.065-0.094l2.278-6.26c0.01-0.038,0.01-0.066,0-0.094
	c-0.009-0.028-0.037-0.047-0.085-0.066c-0.047-0.019-0.103-0.028-0.188-0.038C43.672,16.785,43.569,16.785,43.437,16.785
	L43.437,16.785z M2.448,16.785c-0.132,0-0.245,0.01-0.33,0.019c-0.084,0.009-0.16,0.028-0.226,0.038
	c-0.056,0.019-0.104,0.038-0.132,0.066c-0.028,0.028-0.056,0.057-0.065,0.094l-1.469,4.029C0.075,21.455,0,21.822,0,22.142
	c0.009,0.32,0.084,0.583,0.235,0.791c0.15,0.217,0.376,0.367,0.668,0.471s0.649,0.16,1.064,0.16c0.442,0,0.856-0.057,1.243-0.169
	c0.386-0.113,0.734-0.282,1.045-0.508c0.311-0.226,0.583-0.49,0.828-0.819c0.235-0.32,0.433-0.687,0.574-1.092l1.45-3.973
	c0.009-0.038,0.009-0.066,0-0.094c-0.01-0.028-0.038-0.047-0.085-0.066s-0.104-0.028-0.188-0.038
	c-0.075-0.009-0.188-0.019-0.311-0.019c-0.132,0-0.235,0.01-0.33,0.019s-0.16,0.028-0.226,0.038
	c-0.057,0.019-0.104,0.038-0.132,0.066c-0.028,0.028-0.047,0.057-0.066,0.094l-1.45,3.992c-0.085,0.235-0.188,0.442-0.32,0.621
	s-0.273,0.339-0.433,0.461c-0.16,0.122-0.339,0.216-0.527,0.282c-0.188,0.066-0.396,0.094-0.603,0.094
	c-0.208,0-0.386-0.028-0.537-0.094c-0.142-0.066-0.254-0.16-0.33-0.282c-0.075-0.123-0.113-0.283-0.104-0.48
	c0.009-0.188,0.056-0.423,0.15-0.687l1.422-3.917c0.009-0.038,0.009-0.066,0-0.094c-0.01-0.028-0.038-0.047-0.085-0.066
	c-0.047-0.019-0.113-0.028-0.188-0.038C2.683,16.795,2.58,16.785,2.448,16.785L2.448,16.785z M52.154,16.785
	c-0.132,0-0.244,0.01-0.329,0.019s-0.16,0.028-0.226,0.038c-0.057,0.019-0.104,0.038-0.132,0.066
	c-0.028,0.028-0.048,0.057-0.066,0.094l-1.469,4.029c-0.15,0.423-0.226,0.791-0.226,1.111c0.01,0.32,0.085,0.583,0.235,0.791
	c0.15,0.217,0.377,0.367,0.668,0.471c0.292,0.104,0.65,0.16,1.064,0.16c0.442,0,0.856-0.057,1.242-0.169
	c0.386-0.113,0.734-0.282,1.045-0.508s0.584-0.49,0.828-0.819c0.235-0.32,0.424-0.687,0.574-1.092l1.45-3.973
	c0.01-0.038,0.01-0.066,0-0.094s-0.037-0.047-0.085-0.066c-0.047-0.019-0.104-0.028-0.188-0.038
	c-0.076-0.009-0.188-0.019-0.312-0.019c-0.122,0-0.235,0.01-0.329,0.019s-0.16,0.028-0.226,0.038
	c-0.057,0.019-0.104,0.038-0.132,0.066s-0.047,0.057-0.066,0.094l-1.449,3.992c-0.085,0.235-0.188,0.442-0.32,0.621
	s-0.273,0.339-0.434,0.461c-0.159,0.122-0.339,0.216-0.526,0.282c-0.188,0.066-0.396,0.094-0.603,0.094s-0.387-0.028-0.527-0.094
	c-0.142-0.066-0.254-0.16-0.33-0.282c-0.075-0.123-0.112-0.283-0.104-0.48c0-0.188,0.057-0.423,0.151-0.687l1.421-3.917
	c0.01-0.038,0.01-0.066,0-0.094c-0.009-0.028-0.037-0.047-0.085-0.066c-0.047-0.019-0.112-0.028-0.188-0.038
	C52.389,16.795,52.277,16.785,52.154,16.785L52.154,16.785z M63.667,16.795c-0.122,0-0.226,0-0.311,0.009s-0.15,0.019-0.207,0.047
	c-0.057,0.019-0.095,0.047-0.132,0.075c-0.028,0.028-0.057,0.057-0.066,0.094l-1.129,3.107c-0.085,0.235-0.17,0.48-0.264,0.744
	c-0.095,0.264-0.17,0.508-0.245,0.744h-0.01c-0.009-0.141-0.027-0.273-0.037-0.414c-0.019-0.142-0.028-0.273-0.047-0.415
	c-0.02-0.141-0.038-0.282-0.057-0.423c-0.02-0.141-0.047-0.283-0.066-0.433l-0.404-2.419c-0.02-0.132-0.038-0.245-0.066-0.339
	s-0.065-0.16-0.122-0.217c-0.057-0.047-0.122-0.084-0.197-0.113c-0.085-0.019-0.188-0.028-0.32-0.028h-0.725
	c-0.132,0-0.264,0.038-0.387,0.123c-0.122,0.084-0.216,0.198-0.272,0.357l-2.165,5.959c-0.01,0.038-0.02,0.066-0.01,0.094
	c0.01,0.028,0.028,0.047,0.065,0.065c0.038,0.019,0.095,0.038,0.17,0.047s0.169,0.019,0.292,0.019c0.122,0,0.226-0.009,0.311-0.019
	s0.15-0.028,0.197-0.047c0.057-0.019,0.095-0.038,0.123-0.065c0.028-0.028,0.047-0.057,0.056-0.094l1.262-3.464
	c0.095-0.264,0.179-0.509,0.264-0.753s0.16-0.489,0.235-0.734h0.01c0,0.198,0.019,0.405,0.037,0.622
	c0.02,0.216,0.047,0.414,0.075,0.593l0.519,3.098c0.028,0.169,0.047,0.311,0.075,0.414s0.065,0.188,0.122,0.254
	c0.047,0.066,0.113,0.104,0.197,0.132c0.076,0.028,0.18,0.038,0.302,0.038h0.574c0.065,0,0.132-0.01,0.207-0.028
	c0.066-0.019,0.132-0.047,0.198-0.094c0.056-0.038,0.112-0.094,0.169-0.151c0.047-0.065,0.085-0.132,0.113-0.207l2.165-5.959
	c0.01-0.038,0.019-0.066,0.01-0.094c-0.01-0.028-0.028-0.047-0.066-0.075c-0.037-0.028-0.094-0.038-0.169-0.047
	C63.884,16.804,63.79,16.795,63.667,16.795L63.667,16.795z M15.834,16.813c-0.113,0-0.216,0.038-0.32,0.104
	c-0.104,0.066-0.179,0.179-0.235,0.33l-2.1,5.78c-0.056,0.15-0.056,0.264,0,0.33c0.057,0.066,0.132,0.104,0.245,0.104h3.333
	c0.028,0,0.065-0.009,0.094-0.028s0.066-0.047,0.094-0.084c0.028-0.038,0.066-0.094,0.094-0.16s0.066-0.151,0.104-0.245
	c0.038-0.094,0.066-0.179,0.075-0.245c0.019-0.066,0.019-0.122,0.019-0.16c0-0.038-0.009-0.066-0.028-0.094
	c-0.019-0.019-0.047-0.028-0.075-0.028h-2.382l0.678-1.874h2.005c0.028,0,0.066-0.009,0.094-0.028
	c0.028-0.019,0.066-0.047,0.094-0.084s0.066-0.094,0.094-0.16s0.066-0.151,0.104-0.245c0.038-0.094,0.057-0.179,0.076-0.245
	c0.019-0.066,0.019-0.122,0.019-0.16c0-0.037-0.009-0.065-0.028-0.084c-0.019-0.019-0.047-0.028-0.075-0.028h-2.005l0.584-1.619
	h2.363c0.028,0,0.066-0.009,0.094-0.028c0.028-0.019,0.066-0.047,0.094-0.094c0.028-0.038,0.066-0.094,0.094-0.16
	c0.028-0.066,0.066-0.151,0.104-0.245c0.038-0.104,0.065-0.188,0.075-0.254c0.019-0.066,0.019-0.123,0.019-0.16
	s-0.009-0.075-0.028-0.084c-0.019-0.019-0.038-0.028-0.075-0.028L15.834,16.813L15.834,16.813z M21.398,16.813
	c-0.113,0-0.217,0.038-0.32,0.104s-0.179,0.179-0.235,0.33l-2.193,6.016c-0.009,0.038-0.009,0.066,0,0.094s0.038,0.047,0.084,0.066
	c0.047,0.019,0.113,0.028,0.188,0.038c0.085,0.009,0.188,0.019,0.32,0.019s0.245-0.009,0.329-0.019
	c0.094-0.009,0.16-0.028,0.217-0.038c0.056-0.019,0.104-0.038,0.132-0.066s0.056-0.057,0.066-0.094l0.922-2.523h0.424
	c0.141,0,0.264,0.019,0.357,0.066c0.094,0.047,0.169,0.113,0.217,0.198c0.047,0.084,0.084,0.198,0.113,0.33
	c0.019,0.132,0.038,0.282,0.047,0.442l0.056,1.478c0,0.038,0,0.075,0.009,0.104c0.01,0.028,0.038,0.056,0.076,0.075
	s0.104,0.028,0.188,0.038c0.085,0.009,0.198,0.009,0.339,0.009c0.169,0,0.311,0,0.405-0.009c0.103-0.009,0.179-0.019,0.235-0.038
	c0.056-0.019,0.094-0.038,0.122-0.066c0.019-0.028,0.038-0.057,0.057-0.094c0.009-0.038,0.019-0.084,0.028-0.141
	c0-0.057,0.009-0.15,0-0.282l-0.085-1.309c-0.009-0.16-0.019-0.301-0.047-0.424c-0.019-0.122-0.057-0.235-0.094-0.33
	c-0.038-0.094-0.094-0.179-0.16-0.245s-0.132-0.123-0.216-0.169c0.226-0.066,0.442-0.15,0.64-0.254
	c0.198-0.104,0.376-0.226,0.537-0.376c0.16-0.141,0.301-0.301,0.423-0.489c0.123-0.179,0.226-0.386,0.301-0.603
	c0.094-0.264,0.142-0.499,0.142-0.697c-0.01-0.207-0.057-0.376-0.151-0.527c-0.094-0.15-0.235-0.273-0.414-0.357
	c-0.179-0.094-0.396-0.16-0.65-0.198c-0.084-0.009-0.188-0.019-0.301-0.028c-0.113-0.009-0.254-0.009-0.424-0.009L21.398,16.813
	L21.398,16.813z M37.581,16.813c-0.113,0-0.216,0.038-0.32,0.104s-0.179,0.179-0.235,0.33l-2.1,5.78c-0.056,0.15-0.056,0.264,0,0.33
	c0.057,0.066,0.132,0.104,0.245,0.104h3.333c0.028,0,0.066-0.009,0.094-0.028c0.028-0.019,0.066-0.047,0.094-0.084
	c0.038-0.038,0.066-0.094,0.094-0.16s0.066-0.151,0.104-0.245l0,0c0.038-0.094,0.066-0.179,0.075-0.245
	c0.019-0.066,0.019-0.122,0.019-0.16c0-0.038-0.009-0.066-0.028-0.094c-0.019-0.019-0.047-0.028-0.075-0.028h-2.391l0.678-1.874
	h2.005c0.028,0,0.065-0.009,0.094-0.028c0.028-0.019,0.066-0.047,0.094-0.084c0.028-0.038,0.066-0.094,0.095-0.16
	s0.065-0.151,0.104-0.245c0.038-0.094,0.057-0.179,0.075-0.245s0.019-0.122,0.019-0.16c0-0.037-0.009-0.065-0.028-0.084
	c-0.019-0.019-0.047-0.028-0.075-0.028h-2.005l0.593-1.619H40.5c0.028,0,0.065-0.009,0.094-0.028
	c0.028-0.019,0.066-0.047,0.095-0.094c0.028-0.038,0.065-0.094,0.094-0.16c0.038-0.066,0.066-0.151,0.104-0.245
	c0.038-0.104,0.066-0.188,0.075-0.254c0.02-0.066,0.02-0.123,0.02-0.16s-0.01-0.075-0.028-0.084
	c-0.02-0.019-0.038-0.028-0.075-0.028L37.581,16.813L37.581,16.813z M9.48,16.813c-0.113,0-0.216,0.038-0.32,0.104
	c-0.104,0.066-0.179,0.179-0.235,0.33l-2.1,5.78c-0.056,0.15-0.056,0.254,0,0.33c0.057,0.075,0.132,0.104,0.245,0.104h1.761
	c0.264,0,0.518-0.019,0.744-0.047c0.226-0.028,0.452-0.084,0.668-0.15c0.216-0.066,0.424-0.16,0.621-0.264
	c0.198-0.104,0.376-0.235,0.546-0.376c0.169-0.151,0.32-0.32,0.452-0.508c0.132-0.188,0.245-0.405,0.33-0.64
	c0.084-0.226,0.122-0.433,0.122-0.612c0-0.179-0.038-0.339-0.104-0.471c-0.066-0.131-0.169-0.245-0.292-0.329
	c-0.132-0.085-0.283-0.142-0.452-0.179c0.169-0.056,0.32-0.122,0.471-0.216c0.151-0.084,0.282-0.188,0.405-0.311
	c0.123-0.113,0.226-0.245,0.32-0.386s0.169-0.292,0.226-0.452c0.104-0.283,0.141-0.537,0.122-0.744
	c-0.028-0.217-0.113-0.386-0.254-0.527c-0.142-0.141-0.339-0.245-0.603-0.311c-0.254-0.066-0.584-0.104-0.998-0.104
	C11.146,16.813,9.48,16.813,9.48,16.813z M10.036,17.821h0.678c0.207,0,0.367,0.019,0.48,0.057c0.113,0.038,0.198,0.094,0.254,0.16
	c0.056,0.065,0.084,0.16,0.084,0.264c0,0.103-0.019,0.226-0.066,0.357c-0.047,0.123-0.104,0.235-0.179,0.339
	s-0.169,0.198-0.273,0.282c-0.104,0.085-0.226,0.142-0.358,0.188s-0.292,0.066-0.489,0.066H9.414
	C9.405,19.543,10.036,17.821,10.036,17.821z M21.973,17.849h0.603c0.15,0,0.273,0.009,0.357,0.019
	c0.085,0.01,0.16,0.028,0.217,0.038c0.207,0.066,0.329,0.169,0.367,0.32c0.047,0.151,0.028,0.339-0.057,0.556
	c-0.057,0.141-0.123,0.273-0.217,0.386c-0.094,0.113-0.197,0.216-0.32,0.301c-0.122,0.085-0.273,0.15-0.433,0.198
	c-0.16,0.047-0.339,0.066-0.527,0.066h-0.687L21.973,17.849z M9.047,20.532h0.8c0.245,0,0.433,0.019,0.574,0.066
	c0.141,0.047,0.245,0.104,0.311,0.188c0.066,0.085,0.104,0.188,0.113,0.301c0.009,0.123-0.019,0.254-0.076,0.415
	c-0.056,0.15-0.131,0.282-0.226,0.395c-0.094,0.113-0.207,0.208-0.33,0.283s-0.254,0.132-0.396,0.179
	c-0.141,0.038-0.311,0.057-0.489,0.057h-0.96L9.047,20.532z"/>
</svg>
