<?xml version="1.0" encoding="utf-8"?>
<!-- Generator: Adobe Illustrator 15.0.2, SVG Export Plug-In  -->
<!DOCTYPE svg PUBLIC "-//W3C//DTD SVG 1.1//EN" "http://www.w3.org/Graphics/SVG/1.1/DTD/svg11.dtd" [
	<!ENTITY ns_flows "http://ns.adobe.com/Flows/1.0/">
]>
<svg version="1.1"
	 xmlns="http://www.w3.org/2000/svg" xmlns:xlink="http://www.w3.org/1999/xlink" xmlns:a="http://ns.adobe.com/AdobeSVGViewerExtensions/3.0/"
	 x="0px" y="0px" width="512px" height="512px" viewBox="0 0 512 512" overflow="visible" enable-background="new 0 0 512 512"
	 xml:space="preserve">
<defs>
</defs>
<path id="rect2987_1_" fill="#00ABF1" d="M64,0h384c35.347,0,64,28.654,64,64v384c0,35.347-28.653,64-64,64H64
	c-35.346,0-64-28.653-64-64V64C0,28.654,28.654,0,64,0z"/>
<path id="path5_2_" fill="#FFFFFF" d="M456,131.941c-14.717,6.531-30.527,10.938-47.128,12.924
	c16.936-10.156,29.95-26.243,36.081-45.397c-15.856,9.404-33.424,16.226-52.121,19.908c-14.961-15.952-36.296-25.914-59.893-25.914
	c-45.325,0-82.072,36.747-82.072,82.066c0,6.43,0.728,12.689,2.129,18.704c-68.208-3.432-128.67-36.095-169.147-85.753
	c-7.065,12.121-11.111,26.214-11.111,41.263c0,28.472,14.482,53.586,36.504,68.303c-13.446-0.429-26.097-4.117-37.17-10.261
	c-0.004,0.337-0.004,0.684-0.004,1.03c0,39.759,28.291,72.925,65.828,80.476c-6.887,1.865-14.139,2.876-21.615,2.876
	c-5.295,0-10.432-0.529-15.438-1.477c10.44,32.597,40.75,56.326,76.654,56.989c-28.079,22.015-63.466,35.136-101.924,35.136
	c-6.618,0-13.149-0.391-19.574-1.157c36.326,23.294,79.46,36.882,125.803,36.882c150.943,0,233.491-125.048,233.491-233.491
	c0-3.566-0.083-7.103-0.234-10.625C431.081,162.849,445.004,148.401,456,131.941L456,131.941L456,131.941z"/>
</svg>
