<?xml version="1.0" encoding="utf-8"?>
<!-- Generator: Adobe Illustrator 15.0.2, SVG Export Plug-In  -->
<!DOCTYPE svg PUBLIC "-//W3C//DTD SVG 1.1//EN" "http://www.w3.org/Graphics/SVG/1.1/DTD/svg11.dtd" [
	<!ENTITY ns_flows "http://ns.adobe.com/Flows/1.0/">
]>
<svg version="1.1"
	 xmlns="http://www.w3.org/2000/svg" xmlns:xlink="http://www.w3.org/1999/xlink" xmlns:a="http://ns.adobe.com/AdobeSVGViewerExtensions/3.0/"
	 x="0px" y="0px" width="73px" height="16px" viewBox="0 0 73 16" overflow="visible" enable-background="new 0 0 73 16"
	 xml:space="preserve">
<defs>
</defs>
<polygon fill="#1366AC" points="17.289,1.466 15.101,14.915 18.602,14.915 20.791,1.466 "/>
<g>
	<defs>
		<rect id="SVGID_4_" y="1.226" width="42.91" height="13.92"/>
	</defs>
	<clipPath id="SVGID_5_">
		<use xlink:href="#SVGID_4_"  overflow="visible"/>
	</clipPath>
	<path clip-path="url(#SVGID_5_)" fill="#1366AC" d="M12.155,1.466l-3.338,9.249L8.422,8.724v0.001L7.244,2.677
		c0,0-0.142-1.211-1.661-1.211H0.064L0,1.694c0,0,1.688,0.35,3.664,1.537l3.041,11.684h3.648l5.571-13.449H12.155z"/>
</g>
<g>
	<defs>
		<rect id="SVGID_3_" y="1.226" width="42.91" height="13.92"/>
	</defs>
	<clipPath id="SVGID_6_">
		<use xlink:href="#SVGID_3_"  overflow="visible"/>
	</clipPath>
	<path clip-path="url(#SVGID_6_)" fill="#1366AC" d="M39.695,14.915h3.215L40.107,1.466h-2.814c-1.3,0-1.617,1.001-1.617,1.001
		l-5.222,12.446h3.65l0.729-1.997h4.451L39.695,14.915z M35.843,10.157l1.839-5.033l1.036,5.033H35.843z"/>
</g>
<g>
	<defs>
		<rect id="SVGID_2_" y="1.226" width="42.91" height="13.92"/>
	</defs>
	<clipPath id="SVGID_7_">
		<use xlink:href="#SVGID_2_"  overflow="visible"/>
	</clipPath>
	<path clip-path="url(#SVGID_7_)" fill="#1366AC" d="M30.728,4.7l0.5-2.888c0,0-1.542-0.586-3.149-0.586
		c-1.738,0-5.864,0.76-5.864,4.452c0,3.475,4.844,3.518,4.844,5.343c0,1.823-4.345,1.498-5.778,0.347l-0.521,3.018
		c0,0,1.562,0.76,3.953,0.76c2.388,0,5.994-1.238,5.994-4.604c0-3.496-4.887-3.823-4.887-5.343C25.82,3.679,29.23,3.875,30.728,4.7"
		/>
</g>
<g>
	<defs>
		<rect id="SVGID_1_" y="1.226" width="42.91" height="13.92"/>
	</defs>
	<clipPath id="SVGID_8_">
		<use xlink:href="#SVGID_1_"  overflow="visible"/>
	</clipPath>
	<path clip-path="url(#SVGID_8_)" fill="#F5A537" d="M8.422,8.726L7.244,2.678c0,0-0.142-1.211-1.661-1.211H0.064L0.001,1.694
		c0,0,2.652,0.549,5.196,2.608C7.63,6.271,8.422,8.726,8.422,8.726"/>
</g>
<polygon fill="#F8B235" points="65.139,0 64.728,0.011 64.322,0.042 63.921,0.092 63.528,0.163 63.141,0.251 62.761,0.359 
	62.392,0.486 62.027,0.628 61.673,0.792 61.331,0.966 60.997,1.158 60.673,1.366 60.36,1.59 60.057,1.828 59.768,2.079 59.49,2.343 
	59.226,2.621 58.974,2.913 58.738,3.212 58.516,3.525 58.308,3.852 58.117,4.184 57.939,4.529 57.779,4.882 57.636,5.244 
	57.512,5.617 57.404,5.995 57.315,6.38 57.246,6.771 57.194,7.17 57.164,7.575 57.153,7.986 57.164,8.399 57.194,8.806 
	57.246,9.207 57.315,9.603 57.404,9.989 57.512,10.368 57.636,10.741 57.779,11.105 57.939,11.462 58.117,11.807 58.308,12.142 
	58.516,12.469 58.738,12.782 58.974,13.083 59.226,13.375 59.49,13.653 59.768,13.921 60.057,14.171 60.36,14.409 60.673,14.633 
	60.997,14.84 61.331,15.036 61.673,15.21 62.027,15.372 62.392,15.516 62.761,15.643 63.141,15.75 63.528,15.839 63.921,15.909 
	64.322,15.96 64.728,15.99 65.139,16 65.551,15.99 65.96,15.96 66.359,15.909 66.755,15.839 67.141,15.75 67.522,15.643 
	67.894,15.516 68.258,15.372 68.615,15.21 68.96,15.036 69.294,14.84 69.621,14.633 69.934,14.409 70.236,14.171 70.528,13.921 
	70.806,13.653 71.073,13.375 71.324,13.083 71.562,12.782 71.786,12.469 71.994,12.142 72.188,11.807 72.363,11.462 72.525,11.105 
	72.668,10.741 72.794,10.368 72.903,9.989 72.992,9.603 73.062,9.207 73.113,8.806 73.143,8.399 73.153,7.986 73.143,7.575 
	73.113,7.17 73.062,6.771 72.992,6.38 72.903,5.995 72.794,5.617 72.668,5.244 72.525,4.882 72.363,4.529 72.188,4.184 
	71.994,3.852 71.786,3.525 71.562,3.212 71.324,2.913 71.073,2.621 70.806,2.343 70.528,2.079 70.236,1.828 69.934,1.59 
	69.621,1.366 69.294,1.158 68.96,0.966 68.615,0.792 68.258,0.628 67.894,0.486 67.522,0.359 67.141,0.251 66.755,0.163 
	66.359,0.092 65.96,0.042 65.551,0.011 "/>
<polygon fill="#E42432" points="54.437,0 54.022,0.011 53.615,0.042 53.215,0.092 52.82,0.163 52.433,0.251 52.052,0.359 
	51.68,0.486 51.315,0.628 50.96,0.792 50.614,0.966 50.279,1.158 49.953,1.366 49.64,1.59 49.337,1.828 49.045,2.079 48.768,2.343 
	48.501,2.621 48.25,2.913 48.012,3.212 47.789,3.525 47.581,3.852 47.386,4.184 47.211,4.529 47.048,4.882 46.906,5.244 
	46.779,5.617 46.671,5.995 46.583,6.38 46.511,6.771 46.46,7.17 46.431,7.575 46.419,7.986 46.431,8.399 46.46,8.806 46.511,9.207 
	46.583,9.603 46.671,9.989 46.779,10.368 46.906,10.741 47.048,11.105 47.211,11.462 47.386,11.807 47.581,12.142 47.789,12.469 
	48.012,12.782 48.25,13.083 48.501,13.375 48.768,13.653 49.045,13.921 49.337,14.171 49.64,14.409 49.953,14.633 50.279,14.84 
	50.614,15.036 50.96,15.21 51.315,15.372 51.68,15.516 52.052,15.643 52.433,15.75 52.82,15.839 53.215,15.909 53.615,15.96 
	54.022,15.99 54.437,16 54.845,15.99 55.252,15.96 55.653,15.909 56.047,15.839 56.432,15.75 56.813,15.643 57.182,15.516 
	57.547,15.372 57.901,15.21 58.244,15.036 58.579,14.84 58.902,14.633 59.214,14.409 59.517,14.171 59.806,13.921 60.083,13.653 
	60.348,13.375 60.599,13.083 60.837,12.782 61.058,12.469 61.266,12.142 61.458,11.807 61.635,11.462 61.796,11.105 61.939,10.741 
	62.062,10.368 62.169,9.989 62.259,9.603 62.329,9.207 62.38,8.806 62.411,8.399 62.421,7.986 62.411,7.575 62.38,7.17 
	62.329,6.771 62.259,6.38 62.169,5.995 62.062,5.617 61.939,5.244 61.796,4.882 61.635,4.529 61.458,4.184 61.266,3.852 
	61.058,3.525 60.837,3.212 60.599,2.913 60.348,2.621 60.083,2.343 59.806,2.079 59.517,1.828 59.214,1.59 58.902,1.366 
	58.579,1.158 58.244,0.966 57.901,0.792 57.547,0.628 57.182,0.486 56.813,0.359 56.432,0.251 56.047,0.163 55.653,0.092 
	55.252,0.042 54.845,0.011 "/>
<polygon fill="#F8B235" points="58.851,3.069 63.102,3.069 63.102,2.634 59.218,2.634 "/>
<polygon fill="#F8B235" points="58.214,4.035 63.102,4.035 63.102,3.6 58.47,3.6 "/>
<polygon fill="#F8B235" points="57.739,4.999 63.101,4.999 63.101,4.563 57.927,4.563 "/>
<polygon fill="#F8B235" points="57.412,5.964 63.101,5.964 63.101,5.53 57.547,5.53 "/>
<polygon fill="#F8B235" points="57.602,10.634 63.115,10.634 63.115,10.199 57.465,10.199 "/>
<polygon fill="#F8B235" points="58.009,11.599 63.115,11.599 63.115,11.166 57.806,11.166 "/>
<polygon fill="#F8B235" points="58.581,12.562 63.115,12.562 63.115,12.128 58.308,12.128 "/>
<polygon fill="#F8B235" points="59.37,13.529 63.115,13.529 63.115,13.092 58.989,13.092 "/>
<polygon fill="#F8B235" points="57.221,6.928 63.102,6.928 63.102,6.494 57.304,6.494 "/>
<polygon fill="#F8B235" points="60.804,9.67 63.047,9.67 63.047,9.236 60.886,9.236 "/>
<polygon fill="#F8B235" points="60.984,8.707 63.047,8.707 63.047,8.269 61.064,8.269 "/>
<polygon fill="#F8B235" points="57.073,8.269 57.656,8.269 57.656,8.707 57.099,8.707 "/>
<polygon fill="#FFFFFF" points="55.985,7.742 55.947,7.741 55.91,7.735 55.875,7.729 55.839,7.725 55.806,7.719 55.771,7.713 
	55.736,7.708 55.699,7.703 55.661,7.698 55.618,7.694 55.57,7.691 55.518,7.688 55.461,7.688 55.399,7.691 55.329,7.698 
	55.25,7.703 55.198,7.711 55.146,7.719 55.099,7.735 55.059,7.75 55.021,7.771 54.987,7.792 54.958,7.819 54.934,7.843 
	54.918,7.873 54.906,7.903 54.9,7.934 54.9,7.967 54.908,8.001 54.918,8.037 54.94,8.073 54.966,8.107 55.021,8.158 55.086,8.199 
	55.162,8.234 55.243,8.263 55.329,8.292 55.417,8.32 55.507,8.353 55.593,8.387 55.674,8.434 55.75,8.49 55.818,8.559 55.875,8.642 
	55.917,8.743 55.945,8.866 55.955,9.011 55.945,9.182 55.926,9.309 55.893,9.418 55.849,9.522 55.796,9.61 55.734,9.689 
	55.664,9.757 55.588,9.815 55.504,9.867 55.417,9.907 55.329,9.942 55.236,9.97 55.142,9.991 55.051,10.008 54.962,10.016 
	54.873,10.021 54.79,10.023 54.673,10.023 54.565,10.021 54.47,10.021 54.381,10.018 54.3,10.016 54.228,10.01 54.164,10.004 
	54.102,9.997 54.044,9.991 53.994,9.98 53.941,9.972 53.896,9.958 53.849,9.948 53.807,9.931 53.764,9.915 53.718,9.899 
	53.839,9.304 53.864,9.309 53.893,9.317 53.931,9.327 53.977,9.338 54.026,9.348 54.08,9.359 54.139,9.373 54.204,9.383 
	54.271,9.394 54.341,9.406 54.415,9.413 54.489,9.422 54.568,9.424 54.646,9.427 54.724,9.427 54.802,9.424 54.88,9.407 
	54.943,9.386 54.992,9.356 55.031,9.319 55.057,9.282 55.079,9.238 55.092,9.195 55.103,9.155 55.109,9.076 55.083,9.009 
	55.037,8.954 54.969,8.909 54.89,8.868 54.794,8.829 54.689,8.79 54.583,8.747 54.476,8.698 54.375,8.642 54.279,8.571 
	54.193,8.488 54.125,8.385 54.078,8.263 54.052,8.118 54.056,7.946 54.068,7.84 54.088,7.741 54.115,7.648 54.146,7.562 
	54.19,7.481 54.239,7.411 54.296,7.343 54.363,7.285 54.441,7.233 54.528,7.19 54.625,7.149 54.733,7.12 54.855,7.095 54.987,7.076 
	55.13,7.066 55.292,7.062 55.391,7.062 55.484,7.066 55.567,7.068 55.642,7.071 55.709,7.076 55.771,7.081 55.825,7.087 
	55.875,7.093 55.919,7.097 55.958,7.106 55.992,7.111 56.026,7.118 56.052,7.122 56.077,7.125 56.101,7.131 56.122,7.133 "/>
<polyline fill="none" stroke="#FFFFFF" stroke-width="0.216" stroke-miterlimit="2.613" points="55.985,7.742 55.985,7.742 
	55.947,7.741 55.91,7.735 55.875,7.729 55.839,7.725 55.806,7.719 55.771,7.713 55.736,7.708 55.699,7.703 55.661,7.698 
	55.618,7.694 55.57,7.691 55.518,7.688 55.461,7.688 55.399,7.691 55.329,7.698 55.25,7.703 55.198,7.711 55.146,7.719 
	55.099,7.735 55.059,7.75 55.021,7.771 54.987,7.792 54.958,7.819 54.934,7.843 54.918,7.873 54.906,7.903 54.9,7.934 54.9,7.967 
	54.908,8.001 54.918,8.037 54.94,8.073 54.966,8.107 55.021,8.158 55.086,8.199 55.162,8.234 55.243,8.263 55.329,8.292 
	55.417,8.32 55.507,8.353 55.593,8.387 55.674,8.434 55.75,8.49 55.818,8.559 55.875,8.642 55.917,8.743 55.945,8.866 55.955,9.011 
	55.945,9.182 55.926,9.309 55.893,9.418 55.849,9.522 55.796,9.61 55.734,9.689 55.664,9.757 55.588,9.815 55.504,9.867 
	55.417,9.907 55.329,9.942 55.236,9.97 55.142,9.991 55.051,10.008 54.962,10.016 54.873,10.021 54.79,10.023 54.673,10.023 
	54.565,10.021 54.47,10.021 54.381,10.018 54.3,10.016 54.228,10.01 54.164,10.004 54.102,9.997 54.044,9.991 53.994,9.98 
	53.941,9.972 53.896,9.958 53.849,9.948 53.807,9.931 53.764,9.915 53.718,9.899 53.839,9.304 53.864,9.309 53.893,9.317 
	53.931,9.327 53.977,9.338 54.026,9.348 54.08,9.359 54.139,9.373 54.204,9.383 54.271,9.394 54.341,9.406 54.415,9.413 
	54.489,9.422 54.568,9.424 54.646,9.427 54.724,9.427 54.802,9.424 54.88,9.407 54.943,9.386 54.992,9.356 55.031,9.319 
	55.057,9.282 55.079,9.238 55.092,9.195 55.103,9.155 55.109,9.076 55.083,9.009 55.037,8.954 54.969,8.909 54.89,8.868 
	54.794,8.829 54.689,8.79 54.583,8.747 54.476,8.698 54.375,8.642 54.279,8.571 54.193,8.488 54.125,8.385 54.078,8.263 
	54.052,8.118 54.056,7.946 54.068,7.84 54.088,7.741 54.115,7.648 54.146,7.562 54.19,7.481 54.239,7.411 54.296,7.343 
	54.363,7.285 54.441,7.233 54.528,7.19 54.625,7.149 54.733,7.12 54.855,7.095 54.987,7.076 55.13,7.066 55.292,7.062 55.391,7.062 
	55.484,7.066 55.567,7.068 55.642,7.071 55.709,7.076 55.771,7.081 55.825,7.087 55.875,7.093 55.919,7.097 55.958,7.106 
	55.992,7.111 56.026,7.118 56.052,7.122 56.077,7.125 56.101,7.131 56.122,7.133 55.985,7.742 "/>
<polygon fill="#FFFFFF" points="56.625,6.467 57.372,6.467 57.261,7.12 57.712,7.12 57.615,7.729 57.139,7.716 56.88,9.222 
	56.878,9.276 56.892,9.321 56.918,9.357 56.954,9.386 57.001,9.406 57.057,9.422 57.115,9.432 57.18,9.438 57.24,9.435 57.293,9.43 
	57.343,9.422 57.385,9.411 57.419,9.399 57.445,9.392 57.462,9.386 57.465,9.383 57.372,9.885 57.353,9.899 57.334,9.91 
	57.315,9.921 57.297,9.931 57.277,9.94 57.255,9.948 57.231,9.956 57.208,9.964 57.18,9.972 57.153,9.977 57.121,9.983 
	57.088,9.989 57.054,9.995 57.012,10 56.969,10.004 56.923,10.01 56.718,10.01 56.61,10.001 56.516,9.991 56.43,9.976 56.357,9.956 
	56.294,9.931 56.244,9.905 56.198,9.872 56.163,9.837 56.135,9.8 56.117,9.753 56.104,9.708 56.094,9.656 56.093,9.599 56.093,9.54 
	56.101,9.478 56.109,9.411 "/>
<polyline fill="none" stroke="#FFFFFF" stroke-width="0.216" stroke-miterlimit="2.613" points="56.625,6.467 57.372,6.467 
	57.261,7.12 57.712,7.12 57.615,7.729 57.139,7.716 56.88,9.222 56.878,9.276 56.892,9.321 56.918,9.357 56.954,9.386 57.001,9.406 
	57.057,9.422 57.115,9.432 57.18,9.438 57.24,9.435 57.293,9.43 57.343,9.422 57.385,9.411 57.419,9.399 57.445,9.392 57.462,9.386 
	57.465,9.383 57.372,9.885 57.353,9.899 57.334,9.91 57.315,9.921 57.297,9.931 57.277,9.94 57.255,9.948 57.231,9.956 
	57.208,9.964 57.18,9.972 57.153,9.977 57.121,9.983 57.088,9.989 57.054,9.995 57.012,10 56.969,10.004 56.923,10.01 56.718,10.01 
	56.61,10.001 56.516,9.991 56.43,9.976 56.357,9.956 56.294,9.931 56.244,9.905 56.198,9.872 56.163,9.837 56.135,9.8 56.117,9.753 
	56.104,9.708 56.094,9.656 56.093,9.599 56.093,9.54 56.101,9.478 56.109,9.411 56.625,6.467 "/>
<polyline fill="none" stroke="#FFFFFF" stroke-width="0.216" stroke-miterlimit="2.613" points="58.308,8.747 58.308,8.747 
	58.3,8.792 58.298,8.841 58.302,8.893 58.314,8.944 58.333,8.996 58.355,9.044 58.383,9.095 58.417,9.141 58.454,9.188 
	58.495,9.228 58.537,9.267 58.586,9.3 58.635,9.33 58.689,9.354 58.743,9.373 58.797,9.384 58.867,9.394 58.934,9.403 59.004,9.411 
	59.075,9.417 59.145,9.418 59.218,9.418 59.288,9.417 59.361,9.411 59.434,9.401 59.507,9.386 59.583,9.371 59.656,9.346 
	59.73,9.317 59.809,9.284 59.884,9.241 59.963,9.194 59.855,9.859 59.812,9.88 59.768,9.902 59.726,9.918 59.685,9.934 
	59.644,9.948 59.602,9.962 59.558,9.972 59.512,9.979 59.463,9.989 59.41,9.995 59.353,10 59.292,10.004 59.22,10.008 
	59.148,10.008 59.064,10.01 58.974,10.01 58.843,10.008 58.708,9.995 58.573,9.976 58.438,9.942 58.306,9.902 58.179,9.851 
	58.057,9.784 57.943,9.704 57.839,9.614 57.747,9.503 57.668,9.379 57.604,9.236 57.558,9.076 57.529,8.895 57.521,8.695 
	57.534,8.475 57.545,8.387 57.56,8.288 57.583,8.183 57.612,8.07 57.653,7.954 57.701,7.837 57.763,7.719 57.839,7.606 
	57.924,7.497 58.031,7.394 58.15,7.303 58.284,7.222 58.44,7.154 58.617,7.106 58.81,7.074 59.029,7.062 59.134,7.066 59.245,7.076 
	59.355,7.095 59.466,7.122 59.575,7.164 59.679,7.211 59.776,7.276 59.867,7.352 59.947,7.443 60.013,7.551 60.068,7.675 
	60.106,7.819 60.127,7.98 60.13,8.164 60.111,8.37 60.071,8.596 60.057,8.761 58.09,8.761 58.214,8.229 59.396,8.229 59.402,8.161 
	59.398,8.097 59.393,8.037 59.382,7.984 59.364,7.932 59.345,7.886 59.318,7.845 59.292,7.808 59.259,7.775 59.223,7.748 
	59.182,7.725 59.142,7.702 59.099,7.687 59.056,7.675 59.01,7.667 58.962,7.662 58.911,7.665 58.862,7.672 58.816,7.684 58.77,7.7 
	58.724,7.721 58.683,7.746 58.642,7.775 58.609,7.808 58.573,7.845 58.541,7.886 58.511,7.929 58.487,7.976 58.463,8.024 
	58.443,8.079 58.426,8.132 58.417,8.188 58.308,8.747 "/>
<polygon fill="#FFFFFF" points="64.745,7.281 64.708,7.262 64.675,7.247 64.636,7.228 64.596,7.208 64.556,7.192 64.51,7.177 
	64.464,7.16 64.417,7.144 64.365,7.131 64.313,7.12 64.255,7.108 64.2,7.101 64.137,7.095 64.076,7.09 64.011,7.09 63.943,7.09 
	63.876,7.09 63.805,7.095 63.732,7.104 63.657,7.118 63.583,7.139 63.507,7.168 63.431,7.206 63.355,7.253 63.282,7.313 
	63.211,7.384 63.144,7.47 63.08,7.57 63.02,7.688 62.963,7.823 62.914,7.976 62.87,8.147 62.853,8.245 62.843,8.339 62.836,8.434 
	62.84,8.524 62.847,8.618 62.867,8.704 62.891,8.785 62.919,8.866 62.961,8.938 63.009,9.009 63.066,9.07 63.13,9.127 63.204,9.176 
	63.287,9.215 63.379,9.251 63.481,9.276 63.517,9.284 63.558,9.292 63.606,9.297 63.66,9.304 63.719,9.309 63.782,9.309 
	63.848,9.309 63.917,9.304 63.987,9.294 64.057,9.281 64.125,9.262 64.192,9.241 64.259,9.212 64.322,9.176 64.377,9.133 
	64.431,9.083 64.311,9.806 64.293,9.818 64.278,9.834 64.255,9.854 64.233,9.87 64.204,9.891 64.165,9.91 64.121,9.929 
	64.073,9.944 64.011,9.964 63.94,9.977 63.86,9.989 63.765,10 63.66,10.004 63.537,10.008 63.402,10.004 63.25,9.997 63.125,9.983 
	63.001,9.956 62.877,9.915 62.753,9.86 62.634,9.797 62.521,9.715 62.414,9.621 62.313,9.513 62.224,9.392 62.15,9.257 
	62.083,9.106 62.036,8.942 62.003,8.761 61.992,8.569 61.998,8.358 62.027,8.134 62.048,8.024 62.073,7.917 62.1,7.81 62.127,7.711 
	62.157,7.616 62.192,7.522 62.227,7.433 62.265,7.349 62.306,7.266 62.345,7.187 62.392,7.111 62.44,7.042 62.489,6.974 
	62.542,6.909 62.595,6.85 62.653,6.793 62.714,6.739 62.777,6.688 62.843,6.643 62.911,6.599 62.984,6.558 63.056,6.524 63.13,6.49 
	63.208,6.46 63.293,6.434 63.376,6.413 63.463,6.393 63.555,6.378 63.646,6.364 63.745,6.354 63.84,6.347 63.943,6.345 
	64.031,6.347 64.113,6.354 64.194,6.362 64.275,6.372 64.351,6.383 64.423,6.399 64.494,6.413 64.559,6.429 64.621,6.444 
	64.675,6.46 64.726,6.477 64.769,6.494 64.807,6.507 64.839,6.519 64.864,6.528 64.88,6.534 "/>
<polyline fill="none" stroke="#FFFFFF" stroke-width="0.216" stroke-miterlimit="2.613" points="64.745,7.281 64.745,7.281 
	64.708,7.262 64.675,7.247 64.636,7.228 64.596,7.208 64.556,7.192 64.51,7.177 64.464,7.16 64.417,7.144 64.365,7.131 64.313,7.12 
	64.255,7.108 64.2,7.101 64.137,7.095 64.076,7.09 64.011,7.09 63.943,7.09 63.876,7.09 63.805,7.095 63.732,7.104 63.657,7.118 
	63.583,7.139 63.507,7.168 63.431,7.206 63.355,7.253 63.282,7.313 63.211,7.384 63.144,7.47 63.08,7.57 63.02,7.688 62.963,7.823 
	62.914,7.976 62.87,8.147 62.853,8.245 62.843,8.339 62.836,8.434 62.84,8.524 62.847,8.618 62.867,8.704 62.891,8.785 
	62.919,8.866 62.961,8.938 63.009,9.009 63.066,9.07 63.13,9.127 63.204,9.176 63.287,9.215 63.379,9.251 63.481,9.276 
	63.517,9.284 63.558,9.292 63.606,9.297 63.66,9.304 63.719,9.309 63.782,9.309 63.848,9.309 63.917,9.304 63.987,9.294 
	64.057,9.281 64.125,9.262 64.192,9.241 64.259,9.212 64.322,9.176 64.377,9.133 64.431,9.083 64.311,9.806 64.293,9.818 
	64.278,9.834 64.255,9.854 64.233,9.87 64.204,9.891 64.165,9.91 64.121,9.929 64.073,9.944 64.011,9.964 63.94,9.977 63.86,9.989 
	63.765,10 63.66,10.004 63.537,10.008 63.402,10.004 63.25,9.997 63.125,9.983 63.001,9.956 62.877,9.915 62.753,9.86 62.634,9.797 
	62.521,9.715 62.414,9.621 62.313,9.513 62.224,9.392 62.15,9.257 62.083,9.106 62.036,8.942 62.003,8.761 61.992,8.569 
	61.998,8.358 62.027,8.134 62.048,8.024 62.073,7.917 62.1,7.81 62.127,7.711 62.157,7.616 62.192,7.522 62.227,7.433 62.265,7.349 
	62.306,7.266 62.345,7.187 62.392,7.111 62.44,7.042 62.489,6.974 62.542,6.909 62.595,6.85 62.653,6.793 62.714,6.739 
	62.777,6.688 62.843,6.643 62.911,6.599 62.984,6.558 63.056,6.524 63.13,6.49 63.208,6.46 63.293,6.434 63.376,6.413 63.463,6.393 
	63.555,6.378 63.646,6.364 63.745,6.354 63.84,6.347 63.943,6.345 64.031,6.347 64.113,6.354 64.194,6.362 64.275,6.372 
	64.351,6.383 64.423,6.399 64.494,6.413 64.559,6.429 64.621,6.444 64.675,6.46 64.726,6.477 64.769,6.494 64.807,6.507 
	64.839,6.519 64.864,6.528 64.88,6.534 64.745,7.281 "/>
<polygon fill="#FFFFFF" points="71.388,10.01 70.641,10.01 70.696,9.71 70.696,9.683 70.652,9.738 70.606,9.786 70.56,9.829 
	70.512,9.867 70.463,9.902 70.416,9.931 70.367,9.956 70.314,9.979 70.264,10 70.212,10.012 70.161,10.026 70.106,10.034 
	70.054,10.042 70.001,10.047 69.949,10.05 69.894,10.05 69.753,10.04 69.625,10.01 69.507,9.964 69.396,9.902 69.3,9.824 
	69.213,9.733 69.137,9.632 69.074,9.52 69.02,9.396 68.976,9.271 68.946,9.139 68.925,9 68.917,8.862 68.919,8.723 68.933,8.585 
	68.958,8.448 68.999,8.288 69.047,8.137 69.104,8 69.171,7.87 69.241,7.748 69.322,7.64 69.406,7.543 69.494,7.454 69.588,7.375 
	69.688,7.309 69.792,7.249 69.894,7.203 70.001,7.165 70.11,7.141 70.218,7.125 70.328,7.12 70.407,7.122 70.482,7.131 
	70.552,7.144 70.618,7.164 70.679,7.185 70.734,7.208 70.787,7.239 70.835,7.268 70.878,7.3 70.918,7.335 70.955,7.37 70.987,7.406 
	71.013,7.44 71.039,7.476 71.06,7.508 71.076,7.541 71.265,6.48 72,6.48 "/>
<polyline fill="none" stroke="#FFFFFF" stroke-width="0.216" stroke-miterlimit="2.613" points="71.388,10.01 70.641,10.01 
	70.696,9.71 70.696,9.683 70.652,9.738 70.606,9.786 70.56,9.829 70.512,9.867 70.463,9.902 70.416,9.931 70.367,9.956 
	70.314,9.979 70.264,10 70.212,10.012 70.161,10.026 70.106,10.034 70.054,10.042 70.001,10.047 69.949,10.05 69.894,10.05 
	69.753,10.04 69.625,10.01 69.507,9.964 69.396,9.902 69.3,9.824 69.213,9.733 69.137,9.632 69.074,9.52 69.02,9.396 68.976,9.271 
	68.946,9.139 68.925,9 68.917,8.862 68.919,8.723 68.933,8.585 68.958,8.448 68.999,8.288 69.047,8.137 69.104,8 69.171,7.87 
	69.241,7.748 69.322,7.64 69.406,7.543 69.494,7.454 69.588,7.375 69.688,7.309 69.792,7.249 69.894,7.203 70.001,7.165 
	70.11,7.141 70.218,7.125 70.328,7.12 70.407,7.122 70.482,7.131 70.552,7.144 70.618,7.164 70.679,7.185 70.734,7.208 
	70.787,7.239 70.835,7.268 70.878,7.3 70.918,7.335 70.955,7.37 70.987,7.406 71.013,7.44 71.039,7.476 71.06,7.508 71.076,7.541 
	71.265,6.48 72,6.48 71.388,10.01 "/>
<polygon fill="#F8B235" points="70.166,9.357 70.242,9.352 70.312,9.335 70.376,9.317 70.439,9.287 70.496,9.254 70.549,9.214 
	70.601,9.168 70.647,9.119 70.687,9.066 70.726,9.005 70.76,8.944 70.791,8.879 70.817,8.812 70.838,8.741 70.857,8.668 
	70.871,8.596 70.884,8.521 70.892,8.442 70.892,8.368 70.891,8.293 70.881,8.224 70.871,8.155 70.852,8.091 70.83,8.028 
	70.802,7.976 70.771,7.924 70.736,7.88 70.696,7.843 70.65,7.81 70.601,7.789 70.549,7.775 70.494,7.771 70.419,7.775 70.352,7.786 
	70.291,7.808 70.228,7.834 70.174,7.87 70.121,7.913 70.075,7.959 70.029,8.01 69.988,8.07 69.95,8.132 69.916,8.196 69.886,8.266 
	69.859,8.339 69.837,8.412 69.816,8.49 69.799,8.569 69.786,8.688 69.792,8.817 69.81,8.949 69.845,9.076 69.899,9.188 
	69.969,9.276 70.058,9.335 "/>
<polygon fill="#FFFFFF" points="53.594,9.411 53.486,10.01 52.805,10.01 52.824,9.899 52.838,9.8 52.848,9.723 52.859,9.683 
	52.822,9.727 52.778,9.77 52.727,9.81 52.671,9.848 52.605,9.885 52.539,9.918 52.468,9.95 52.394,9.977 52.317,10.001 
	52.239,10.021 52.16,10.037 52.08,10.047 52.001,10.052 51.922,10.056 51.847,10.047 51.774,10.037 51.68,10.012 51.593,9.985 
	51.518,9.95 51.451,9.91 51.392,9.867 51.337,9.818 51.294,9.766 51.255,9.714 51.224,9.656 51.198,9.597 51.175,9.538 51.16,9.478 
	51.148,9.417 51.14,9.354 51.135,9.294 51.135,9.235 51.142,9.129 51.16,9.03 51.187,8.935 51.221,8.844 51.265,8.758 51.313,8.68 
	51.37,8.604 51.434,8.536 51.501,8.475 51.579,8.417 51.656,8.366 51.736,8.323 51.823,8.286 51.914,8.255 52.004,8.231 
	52.098,8.215 52.104,8.215 52.117,8.212 52.136,8.209 52.166,8.208 52.199,8.202 52.236,8.199 52.276,8.194 52.322,8.188 
	52.369,8.183 52.415,8.178 52.463,8.174 52.505,8.168 52.548,8.167 52.588,8.164 52.627,8.161 52.657,8.161 52.719,8.161 
	52.784,8.164 52.844,8.167 52.902,8.167 52.951,8.168 52.988,8.172 53.015,8.174 53.024,8.174 53.031,8.155 53.045,8.107 
	53.058,8.05 53.064,8 53.053,7.94 53.031,7.886 52.997,7.837 52.954,7.797 52.902,7.762 52.845,7.738 52.781,7.721 52.71,7.716 
	52.635,7.713 52.554,7.711 52.47,7.711 52.384,7.713 52.296,7.719 52.208,7.726 52.123,7.735 52.039,7.746 51.958,7.756 
	51.879,7.771 51.809,7.784 51.745,7.797 51.686,7.813 51.636,7.829 51.599,7.848 51.569,7.865 51.761,7.214 51.821,7.19 
	51.879,7.168 51.945,7.149 52.009,7.135 52.075,7.122 52.145,7.111 52.214,7.101 52.287,7.095 52.363,7.09 52.441,7.087 
	52.522,7.084 52.605,7.084 52.692,7.084 52.781,7.084 52.875,7.087 52.969,7.09 53.045,7.095 53.127,7.108 53.21,7.127 
	53.297,7.152 53.38,7.185 53.462,7.222 53.542,7.268 53.619,7.319 53.685,7.379 53.746,7.443 53.798,7.516 53.838,7.597 
	53.867,7.684 53.882,7.775 53.882,7.878 53.867,7.986 "/>
<polyline fill="none" stroke="#FFFFFF" stroke-width="0.216" stroke-miterlimit="2.613" points="53.594,9.411 53.486,10.01 
	52.805,10.01 52.824,9.899 52.838,9.8 52.848,9.723 52.859,9.683 52.822,9.727 52.778,9.77 52.727,9.81 52.671,9.848 52.605,9.885 
	52.539,9.918 52.468,9.95 52.394,9.977 52.317,10.001 52.239,10.021 52.16,10.037 52.08,10.047 52.001,10.052 51.922,10.056 
	51.847,10.047 51.774,10.037 51.68,10.012 51.593,9.985 51.518,9.95 51.451,9.91 51.392,9.867 51.337,9.818 51.294,9.766 
	51.255,9.714 51.224,9.656 51.198,9.597 51.175,9.538 51.16,9.478 51.148,9.417 51.14,9.354 51.135,9.294 51.135,9.235 
	51.142,9.129 51.16,9.03 51.187,8.935 51.221,8.844 51.265,8.758 51.313,8.68 51.37,8.604 51.434,8.536 51.501,8.475 51.579,8.417 
	51.656,8.366 51.736,8.323 51.823,8.286 51.914,8.255 52.004,8.231 52.098,8.215 52.104,8.215 52.117,8.212 52.136,8.209 
	52.166,8.208 52.199,8.202 52.236,8.199 52.276,8.194 52.322,8.188 52.369,8.183 52.415,8.178 52.463,8.174 52.505,8.168 
	52.548,8.167 52.588,8.164 52.627,8.161 52.657,8.161 52.719,8.161 52.784,8.164 52.844,8.167 52.902,8.167 52.951,8.168 
	52.988,8.172 53.015,8.174 53.024,8.174 53.031,8.155 53.045,8.107 53.058,8.05 53.064,8 53.053,7.94 53.031,7.886 52.997,7.837 
	52.954,7.797 52.902,7.762 52.845,7.738 52.781,7.721 52.71,7.716 52.635,7.713 52.554,7.711 52.47,7.711 52.384,7.713 
	52.296,7.719 52.208,7.726 52.123,7.735 52.039,7.746 51.958,7.756 51.879,7.771 51.809,7.784 51.745,7.797 51.686,7.813 
	51.636,7.829 51.599,7.848 51.569,7.865 51.761,7.214 51.821,7.19 51.879,7.168 51.945,7.149 52.009,7.135 52.075,7.122 
	52.145,7.111 52.214,7.101 52.287,7.095 52.363,7.09 52.441,7.087 52.522,7.084 52.605,7.084 52.692,7.084 52.781,7.084 
	52.875,7.087 52.969,7.09 53.045,7.095 53.127,7.108 53.21,7.127 53.297,7.152 53.38,7.185 53.462,7.222 53.542,7.268 53.619,7.319 
	53.685,7.379 53.746,7.443 53.798,7.516 53.838,7.597 53.867,7.684 53.882,7.775 53.882,7.878 53.867,7.986 53.594,9.411 "/>
<polygon fill="#E42432" points="52.943,8.707 52.94,8.693 52.929,8.68 52.914,8.67 52.886,8.667 52.856,8.661 52.822,8.657 
	52.781,8.657 52.74,8.657 52.698,8.661 52.652,8.667 52.609,8.67 52.565,8.676 52.525,8.682 52.487,8.69 52.455,8.698 52.424,8.707 
	52.406,8.711 52.384,8.72 52.355,8.731 52.324,8.743 52.29,8.761 52.254,8.78 52.217,8.798 52.182,8.819 52.145,8.846 52.109,8.873 
	52.077,8.905 52.047,8.938 52.02,8.973 52.001,9.012 51.986,9.054 51.977,9.097 51.974,9.19 51.988,9.262 52.015,9.317 
	52.049,9.357 52.09,9.384 52.136,9.401 52.18,9.407 52.223,9.411 52.302,9.407 52.376,9.401 52.447,9.39 52.509,9.373 52.562,9.354 
	52.614,9.33 52.66,9.306 52.7,9.276 52.735,9.249 52.766,9.215 52.794,9.187 52.817,9.155 52.834,9.122 52.851,9.09 52.865,9.059 
	52.872,9.03 52.894,8.953 52.914,8.862 52.929,8.776 "/>
<polygon fill="#FFFFFF" points="47.916,10.01 47.181,10.01 47.793,6.467 49.07,6.467 49.192,8.569 50.074,6.467 51.408,6.467 
	50.782,10.01 50.047,10.01 50.511,7.362 50.482,7.362 49.382,10.01 48.555,10.01 48.549,9.899 48.532,9.605 48.507,9.188 
	48.479,8.707 48.453,8.224 48.427,7.8 48.409,7.493 48.403,7.362 48.395,7.362 48.379,7.362 48.363,7.362 "/>
<polyline fill="none" stroke="#FFFFFF" stroke-width="0.216" stroke-miterlimit="2.613" points="47.916,10.01 47.181,10.01 
	47.793,6.467 49.07,6.467 49.192,8.569 50.074,6.467 51.408,6.467 50.782,10.01 50.047,10.01 50.511,7.362 50.482,7.362 
	49.382,10.01 48.555,10.01 48.549,9.899 48.532,9.605 48.507,9.188 48.479,8.707 48.453,8.224 48.427,7.8 48.409,7.493 
	48.403,7.362 48.395,7.362 48.379,7.362 48.363,7.362 47.916,10.01 "/>
<polygon fill="#FFFFFF" points="66.988,9.411 66.876,10.01 66.2,10.01 66.205,9.899 66.208,9.802 66.208,9.73 66.212,9.697 
	66.179,9.738 66.136,9.778 66.088,9.815 66.035,9.854 65.978,9.888 65.915,9.921 65.845,9.953 65.779,9.979 65.705,10.001 
	65.63,10.023 65.555,10.037 65.48,10.047 65.401,10.052 65.325,10.056 65.251,10.047 65.179,10.037 65.083,10.012 64.996,9.985 
	64.919,9.95 64.849,9.91 64.791,9.867 64.739,9.818 64.696,9.766 64.658,9.714 64.626,9.656 64.603,9.597 64.581,9.538 
	64.567,9.478 64.556,9.417 64.548,9.354 64.542,9.294 64.542,9.235 64.548,9.129 64.564,9.03 64.588,8.935 64.624,8.844 
	64.664,8.758 64.715,8.68 64.771,8.604 64.833,8.536 64.905,8.475 64.976,8.417 65.056,8.366 65.139,8.323 65.222,8.286 
	65.312,8.255 65.401,8.231 65.493,8.215 65.499,8.215 65.51,8.212 65.531,8.209 65.557,8.208 65.592,8.202 65.63,8.199 65.67,8.194 
	65.713,8.188 65.759,8.183 65.809,8.178 65.854,8.174 65.9,8.168 65.943,8.167 65.981,8.164 66.018,8.161 66.047,8.161 
	66.113,8.161 66.179,8.164 66.24,8.167 66.299,8.167 66.351,8.168 66.393,8.172 66.417,8.174 66.429,8.174 66.434,8.155 
	66.442,8.107 66.45,8.05 66.455,8 66.445,7.94 66.423,7.886 66.388,7.837 66.347,7.797 66.299,7.762 66.243,7.738 66.183,7.721 
	66.119,7.716 66.042,7.713 65.962,7.711 65.878,7.711 65.792,7.713 65.703,7.719 65.617,7.726 65.531,7.735 65.447,7.746 
	65.365,7.756 65.288,7.771 65.217,7.784 65.153,7.797 65.093,7.813 65.044,7.829 65.007,7.848 64.976,7.865 65.166,7.214 
	65.226,7.19 65.288,7.168 65.349,7.149 65.415,7.135 65.481,7.122 65.549,7.111 65.619,7.101 65.692,7.095 65.767,7.09 
	65.845,7.087 65.923,7.084 66.008,7.084 66.091,7.084 66.179,7.084 66.27,7.087 66.361,7.09 66.437,7.095 66.517,7.108 
	66.602,7.127 66.688,7.152 66.773,7.185 66.855,7.222 66.937,7.268 67.011,7.319 67.08,7.379 67.141,7.443 67.195,7.516 
	67.236,7.597 67.265,7.684 67.285,7.775 67.285,7.878 67.271,7.986 "/>
<path fill="#FFFFFF" d="M66.876,10.029l0.014-0.003l0.003-0.014L66.876,10.029z M66.861,10.008l0.016-0.018v0.038l0.017-0.016
	l0.11-0.599L66.97,9.407L66.861,10.008z"/>
<path fill="#FFFFFF" d="M66.181,10.029h0.018l-0.016-0.019L66.181,10.029z M66.2,9.991l0.016,0.019h-0.032l0.016,0.019h0.678V9.991
	H66.2L66.2,9.991z"/>
<path fill="#FFFFFF" d="M66.191,9.729l-0.003,0.073v0.097l-0.006,0.111h0.033l0.006-0.111l0.006-0.097l-0.003-0.073V9.708
	l-0.021-0.02L66.191,9.729z M66.203,9.688L66.203,9.688L66.2,9.687L66.203,9.688z M66.203,9.688l0.024,0.02l-0.024-0.021V9.688z"/>
<polygon fill="#FFFFFF" points="65.176,10.053 65.176,10.053 65.251,10.063 65.325,10.072 65.401,10.07 65.48,10.063 65.557,10.053 
	65.632,10.04 65.708,10.018 65.783,9.997 65.851,9.97 65.921,9.938 65.987,9.905 66.042,9.867 66.1,9.829 66.148,9.792 
	66.191,9.748 66.227,9.708 66.2,9.687 66.164,9.727 66.127,9.764 66.079,9.802 66.027,9.839 65.97,9.872 65.906,9.905 65.84,9.938 
	65.774,9.964 65.703,9.985 65.627,10.008 65.551,10.021 65.48,10.031 65.401,10.037 65.325,10.04 65.251,10.031 65.182,10.021 "/>
<polygon fill="#FFFFFF" points="64.523,9.235 64.523,9.235 64.527,9.294 64.532,9.354 64.541,9.418 64.551,9.48 64.564,9.54 
	64.586,9.603 64.61,9.664 64.645,9.72 64.682,9.777 64.726,9.829 64.781,9.88 64.843,9.924 64.914,9.968 64.99,10.001 65.08,10.029 
	65.177,10.053 65.182,10.021 65.085,9.997 65.001,9.97 64.929,9.934 64.858,9.896 64.801,9.854 64.752,9.808 64.708,9.757 
	64.671,9.704 64.642,9.647 64.619,9.592 64.596,9.536 64.583,9.476 64.572,9.413 64.564,9.354 64.559,9.294 64.562,9.235 "/>
<polygon fill="#FFFFFF" points="65.493,8.199 65.493,8.199 65.398,8.215 65.306,8.239 65.217,8.269 65.13,8.308 65.047,8.349 
	64.966,8.405 64.893,8.461 64.823,8.526 64.758,8.593 64.703,8.668 64.647,8.749 64.607,8.839 64.572,8.93 64.548,9.027 
	64.532,9.129 64.523,9.236 64.562,9.236 64.564,9.129 64.581,9.032 64.604,8.941 64.64,8.849 64.68,8.766 64.728,8.69 64.786,8.616 
	64.845,8.547 64.916,8.488 64.988,8.43 65.063,8.383 65.147,8.339 65.228,8.301 65.317,8.272 65.403,8.248 65.493,8.231 "/>
<polygon fill="#FFFFFF" points="66.018,8.142 65.981,8.147 65.943,8.151 65.9,8.153 65.854,8.158 65.809,8.162 65.759,8.167 
	65.713,8.172 65.671,8.178 65.629,8.183 65.592,8.186 65.557,8.192 65.532,8.194 65.509,8.196 65.499,8.199 65.493,8.199 
	65.493,8.231 65.499,8.231 65.513,8.229 65.532,8.226 65.557,8.224 65.592,8.218 65.629,8.215 65.671,8.209 65.713,8.205 
	65.759,8.199 65.809,8.194 65.854,8.192 65.9,8.186 65.943,8.183 65.981,8.18 66.018,8.18 66.048,8.18 66.048,8.142 "/>
<path fill="#FFFFFF" d="M66.429,8.192l0.013,0.002l0.003-0.016L66.429,8.192z M66.048,8.142V8.18h0.064h0.066l0.061,0.006h0.06
	h0.052l0.043,0.002l0.023,0.003h0.011l0.018-0.014l-0.035-0.006l0.017-0.014h-0.011l-0.023-0.003l-0.044-0.001l-0.05-0.006h-0.061
	h-0.062l-0.064-0.005h-0.065L66.048,8.142L66.048,8.142z"/>
<polygon fill="#FFFFFF" points="66.472,8 66.44,8 66.438,8 66.434,8.05 66.426,8.104 66.417,8.153 66.412,8.172 66.445,8.178 
	66.45,8.158 66.458,8.109 66.465,8.05 66.474,8 "/>
<polygon fill="#FFFFFF" points="66.119,7.7 66.119,7.733 66.119,7.735 66.181,7.738 66.237,7.753 66.291,7.778 66.337,7.81 
	66.375,7.849 66.407,7.894 66.429,7.942 66.44,8 66.471,8 66.461,7.938 66.44,7.878 66.402,7.827 66.359,7.784 66.308,7.747 
	66.25,7.721 66.187,7.706 66.119,7.698 "/>
<polygon fill="#FFFFFF" points="65.878,7.691 65.792,7.698 65.703,7.702 65.617,7.711 65.532,7.719 65.447,7.729 65.363,7.74 
	65.285,7.753 65.214,7.767 65.15,7.781 65.089,7.797 65.039,7.813 64.999,7.832 64.966,7.852 64.994,7.867 64.961,7.862 
	64.988,7.878 65.015,7.865 65.049,7.845 65.096,7.829 65.156,7.813 65.22,7.8 65.291,7.786 65.369,7.772 65.447,7.762 65.532,7.75 
	65.617,7.742 65.703,7.735 65.792,7.729 65.878,7.729 65.962,7.729 66.042,7.729 66.119,7.732 66.119,7.7 66.042,7.698 
	65.962,7.691 "/>
<path fill="#FFFFFF" d="M65.153,7.2L65.15,7.211l0.011-0.014L65.153,7.2z M65.16,7.198l-0.01,0.014l-0.189,0.65l0.033,0.006
	l0.188-0.651l-0.011,0.014L65.16,7.198z"/>
<polygon fill="#FFFFFF" points="66.091,7.066 66.009,7.066 65.923,7.066 65.845,7.071 65.767,7.074 65.692,7.08 65.619,7.084 
	65.546,7.095 65.478,7.106 65.412,7.12 65.346,7.133 65.282,7.152 65.22,7.174 65.16,7.198 65.171,7.231 65.23,7.206 65.292,7.185 
	65.352,7.166 65.417,7.152 65.486,7.139 65.551,7.127 65.619,7.117 65.692,7.112 65.767,7.106 65.845,7.104 65.923,7.104 
	66.009,7.104 66.091,7.104 66.177,7.104 66.27,7.106 66.361,7.106 66.361,7.074 66.27,7.068 66.177,7.066 "/>
<polygon fill="#FFFFFF" points="67.287,7.989 67.287,7.989 67.3,7.878 67.3,7.775 67.282,7.681 67.251,7.592 67.208,7.508 
	67.156,7.433 67.09,7.366 67.023,7.306 66.943,7.254 66.864,7.206 66.777,7.168 66.693,7.135 66.604,7.111 66.52,7.093 66.438,7.08 
	66.361,7.074 66.361,7.106 66.438,7.111 66.516,7.125 66.598,7.144 66.682,7.168 66.766,7.2 66.846,7.239 66.928,7.281 
	67.001,7.333 67.068,7.393 67.127,7.454 67.182,7.524 67.219,7.603 67.25,7.687 67.269,7.775 67.269,7.878 67.254,7.983 "/>
<polygon fill="#FFFFFF" points="66.971,9.407 67.004,9.413 67.287,7.989 67.254,7.984 "/>
<polygon fill="#F8B235" points="66.333,8.707 66.329,8.69 66.318,8.676 66.299,8.668 66.273,8.661 66.243,8.657 66.207,8.655 
	66.167,8.655 66.126,8.657 66.083,8.664 66.041,8.668 65.997,8.674 65.956,8.68 65.917,8.688 65.88,8.693 65.845,8.701 65.82,8.707 
	65.8,8.709 65.778,8.717 65.751,8.726 65.721,8.737 65.687,8.752 65.656,8.769 65.617,8.787 65.583,8.812 65.546,8.836 65.51,8.866 
	65.481,8.895 65.452,8.93 65.427,8.969 65.408,9.009 65.393,9.051 65.384,9.097 65.382,9.19 65.394,9.262 65.417,9.317 
	65.449,9.357 65.489,9.384 65.536,9.401 65.583,9.407 65.627,9.411 65.708,9.407 65.783,9.401 65.854,9.386 65.917,9.367 
	65.976,9.346 66.027,9.321 66.075,9.294 66.119,9.262 66.157,9.233 66.188,9.198 66.218,9.166 66.243,9.129 66.262,9.097 
	66.276,9.066 66.286,9.032 66.293,9.003 66.305,8.929 66.318,8.849 66.329,8.773 "/>
<polygon fill="#FFFFFF" points="71.893,9.641 71.9,9.578 71.919,9.504 71.958,9.441 72.004,9.384 72.06,9.338 72.127,9.306 
	72.197,9.284 72.271,9.276 72.347,9.284 72.417,9.306 72.482,9.338 72.539,9.384 72.585,9.441 72.623,9.504 72.644,9.578 
	72.65,9.641 72.568,9.641 72.566,9.592 72.548,9.532 72.522,9.478 72.487,9.432 72.445,9.394 72.393,9.367 72.333,9.348 
	72.271,9.343 72.209,9.348 72.151,9.367 72.099,9.394 72.056,9.432 72.021,9.478 71.994,9.532 71.978,9.592 71.972,9.641 "/>
<polygon fill="#FFFFFF" points="72.136,9.478 72.136,9.641 72.204,9.641 72.204,9.536 72.285,9.536 72.301,9.536 72.314,9.536 
	72.328,9.538 72.343,9.54 72.349,9.546 72.359,9.551 72.363,9.562 72.367,9.576 72.367,9.595 72.361,9.608 72.355,9.616 
	72.345,9.625 72.331,9.629 72.314,9.635 72.296,9.638 72.285,9.641 72.398,9.641 72.403,9.635 72.412,9.619 72.417,9.599 
	72.419,9.576 72.417,9.557 72.412,9.538 72.401,9.522 72.387,9.504 72.369,9.495 72.347,9.485 72.317,9.48 72.285,9.478 "/>
<polygon fill="#FFFFFF" points="71.893,9.641 71.892,9.656 71.9,9.735 71.919,9.808 71.958,9.872 72.004,9.926 72.06,9.972 
	72.127,10.008 72.197,10.029 72.271,10.037 72.347,10.029 72.417,10.008 72.482,9.972 72.539,9.926 72.585,9.872 72.623,9.808 
	72.644,9.735 72.652,9.656 72.65,9.641 72.568,9.641 72.572,9.656 72.566,9.72 72.548,9.781 72.522,9.833 72.487,9.878 
	72.445,9.915 72.393,9.945 72.333,9.964 72.271,9.97 72.209,9.964 72.151,9.945 72.099,9.915 72.056,9.878 72.021,9.833 
	71.994,9.781 71.978,9.72 71.972,9.656 71.972,9.641 "/>
<polygon fill="#FFFFFF" points="72.285,9.641 72.271,9.643 72.204,9.643 72.204,9.641 72.136,9.641 72.136,9.805 72.204,9.805 
	72.204,9.67 72.271,9.67 72.351,9.805 72.407,9.805 72.325,9.67 72.345,9.67 72.364,9.665 72.379,9.66 72.393,9.648 72.398,9.641 
	"/>
<path fill="none" stroke="#FFFFFF" stroke-width="0.216" stroke-miterlimit="2.613" d="M71.892,9.656L71.892,9.656L71.9,9.578
	l0.021-0.073l0.037-0.063l0.046-0.057l0.058-0.045l0.064-0.033l0.07-0.022l0.074-0.008l0.076,0.008l0.07,0.022l0.064,0.033
	l0.058,0.045l0.046,0.057l0.037,0.063l0.021,0.073l0.008,0.079l-0.008,0.079l-0.021,0.073l-0.037,0.064L72.54,9.927l-0.058,0.045
	l-0.064,0.036l-0.07,0.021l-0.076,0.009l-0.074-0.009l-0.07-0.021l-0.064-0.036l-0.058-0.046l-0.046-0.055l-0.037-0.064L71.9,9.735
	L71.892,9.656 M72.204,9.806h-0.067V9.479h0.148l0.033,0.002l0.029,0.006l0.022,0.009l0.019,0.01l0.014,0.017l0.01,0.016
	l0.006,0.019l0.004,0.02L72.417,9.6l-0.006,0.019l-0.009,0.017l-0.01,0.012L72.379,9.66l-0.016,0.004l-0.019,0.007h-0.021
	l0.082,0.135h-0.054l-0.082-0.135h-0.066L72.204,9.806 M72.271,9.643L72.271,9.643l0.025-0.005l0.018-0.002l0.017-0.006l0.014-0.005
	l0.011-0.008l0.006-0.009l0.006-0.013v-0.02l-0.003-0.012l-0.005-0.012l-0.01-0.005L72.341,9.54l-0.013-0.003l-0.014-0.002h-0.014
	h-0.016h-0.081v0.107h0.066 M72.271,9.97L72.271,9.97l0.062-0.005l0.06-0.02l0.052-0.029l0.043-0.037l0.035-0.046l0.026-0.052
	l0.018-0.06l0.005-0.064l-0.005-0.064l-0.018-0.059l-0.026-0.054l-0.035-0.046l-0.043-0.038l-0.052-0.027l-0.06-0.019l-0.062-0.005
	L72.21,9.349l-0.06,0.019l-0.053,0.027l-0.042,0.038L72.02,9.479l-0.026,0.054l-0.016,0.059l-0.005,0.064l0.005,0.064l0.016,0.06
	l0.026,0.052l0.036,0.046l0.042,0.037l0.053,0.029l0.06,0.02L72.271,9.97"/>
<polygon fill="#FFFFFF" points="67.19,10.01 67.952,10.01 68.224,8.475 68.234,8.415 68.25,8.356 68.267,8.297 68.289,8.237 
	68.315,8.178 68.347,8.121 68.382,8.067 68.426,8.015 68.474,7.97 68.528,7.926 68.59,7.886 68.661,7.853 68.739,7.827 
	68.826,7.805 68.919,7.789 69.025,7.784 69.063,7.784 69.083,7.784 69.092,7.784 69.213,7.09 69.137,7.095 69.065,7.104 
	68.999,7.117 68.933,7.135 68.873,7.157 68.817,7.185 68.763,7.214 68.711,7.247 68.663,7.285 68.617,7.322 68.574,7.366 
	68.532,7.408 68.49,7.454 68.45,7.505 68.41,7.554 68.373,7.608 68.454,7.12 67.694,7.12 "/>
<polyline fill="none" stroke="#FFFFFF" stroke-width="0.216" stroke-miterlimit="2.613" points="67.19,10.01 67.952,10.01 
	68.224,8.475 68.234,8.415 68.25,8.356 68.267,8.297 68.289,8.237 68.315,8.178 68.347,8.121 68.382,8.067 68.426,8.015 
	68.474,7.97 68.528,7.926 68.59,7.886 68.661,7.853 68.739,7.827 68.826,7.805 68.919,7.789 69.025,7.784 69.063,7.784 
	69.083,7.784 69.092,7.784 69.213,7.09 69.137,7.095 69.065,7.104 68.999,7.117 68.933,7.135 68.873,7.157 68.817,7.185 
	68.763,7.214 68.711,7.247 68.663,7.285 68.617,7.322 68.574,7.366 68.532,7.408 68.49,7.454 68.45,7.505 68.41,7.554 68.373,7.608 
	68.454,7.12 67.694,7.12 67.19,10.01 "/>
<polygon fill="#FFFFFF" points="60.043,10.01 60.804,10.01 60.818,10.01 61.079,8.475 61.088,8.415 61.102,8.358 61.115,8.301 
	61.134,8.248 61.156,8.194 61.182,8.142 61.215,8.094 61.252,8.048 61.296,8.007 61.344,7.967 61.404,7.934 61.468,7.905 
	61.543,7.88 61.627,7.859 61.72,7.845 61.824,7.837 61.833,7.837 61.844,7.841 61.857,7.843 61.871,7.843 61.884,7.845 
	61.895,7.848 61.903,7.852 61.907,7.852 61.908,7.841 61.917,7.808 61.927,7.759 61.941,7.7 61.96,7.63 61.978,7.554 62.003,7.478 
	62.027,7.403 62.048,7.352 62.076,7.3 62.103,7.249 62.129,7.203 62.154,7.164 62.173,7.131 62.187,7.111 62.192,7.104 
	62.189,7.104 62.179,7.101 62.166,7.098 62.145,7.095 62.127,7.095 62.106,7.093 62.086,7.09 62.068,7.09 61.985,7.095 
	61.908,7.104 61.838,7.117 61.774,7.133 61.711,7.154 61.656,7.182 61.604,7.208 61.555,7.241 61.509,7.276 61.465,7.316 
	61.425,7.357 61.385,7.403 61.344,7.449 61.306,7.5 61.266,7.554 61.226,7.608 61.323,7.12 60.548,7.12 "/>
<polyline fill="none" stroke="#FFFFFF" stroke-width="0.216" stroke-miterlimit="2.613" points="60.043,10.01 60.804,10.01 
	60.818,10.01 61.079,8.475 61.088,8.415 61.102,8.358 61.115,8.301 61.134,8.248 61.156,8.194 61.182,8.142 61.215,8.094 
	61.252,8.048 61.296,8.007 61.344,7.967 61.404,7.934 61.468,7.905 61.543,7.88 61.627,7.859 61.72,7.845 61.824,7.837 
	61.833,7.837 61.844,7.841 61.857,7.843 61.871,7.843 61.884,7.845 61.895,7.848 61.903,7.852 61.907,7.852 61.908,7.841 
	61.917,7.808 61.927,7.759 61.941,7.7 61.96,7.63 61.978,7.554 62.003,7.478 62.027,7.403 62.048,7.352 62.076,7.3 62.103,7.249 
	62.129,7.203 62.154,7.164 62.173,7.131 62.187,7.111 62.192,7.104 62.189,7.104 62.179,7.101 62.166,7.098 62.145,7.095 
	62.127,7.095 62.106,7.093 62.086,7.09 62.068,7.09 61.985,7.095 61.908,7.104 61.838,7.117 61.774,7.133 61.711,7.154 
	61.656,7.182 61.604,7.208 61.555,7.241 61.509,7.276 61.465,7.316 61.425,7.357 61.385,7.403 61.344,7.449 61.306,7.5 
	61.266,7.554 61.226,7.608 61.323,7.12 60.548,7.12 60.043,10.01 "/>
<polygon fill="#F8B235" points="72.197,12.557 72.127,12.576 72.06,12.608 72.004,12.652 71.958,12.707 71.919,12.769 71.9,12.837 
	71.9,12.849 71.977,12.849 71.994,12.792 72.021,12.741 72.056,12.695 72.098,12.657 72.151,12.628 72.209,12.608 72.271,12.604 
	72.333,12.608 72.393,12.628 72.445,12.657 72.487,12.695 72.522,12.741 72.549,12.792 72.566,12.849 72.644,12.849 72.644,12.837 
	72.623,12.769 72.585,12.707 72.54,12.652 72.484,12.608 72.417,12.576 72.347,12.557 72.271,12.548 "/>
<polygon fill="#F8B235" points="72.285,12.754 72.136,12.754 72.136,12.849 72.204,12.849 72.204,12.796 72.285,12.796 
	72.301,12.796 72.315,12.796 72.329,12.798 72.343,12.8 72.349,12.806 72.359,12.811 72.364,12.823 72.367,12.835 72.367,12.849 
	72.419,12.849 72.417,12.825 72.412,12.806 72.402,12.79 72.387,12.776 72.369,12.765 72.347,12.761 72.318,12.754 "/>
<polygon fill="#F8B235" points="71.9,12.849 71.892,12.907 71.972,12.907 71.977,12.851 71.977,12.849 "/>
<polygon fill="#F8B235" points="72.367,12.849 72.367,12.855 72.361,12.867 72.355,12.876 72.345,12.884 72.331,12.89 
	72.314,12.895 72.296,12.897 72.271,12.903 72.204,12.903 72.204,12.849 72.136,12.849 72.136,12.907 72.393,12.907 72.403,12.897 
	72.412,12.884 72.417,12.867 72.419,12.849 "/>
<polygon fill="#F8B235" points="72.567,12.849 72.567,12.851 72.571,12.907 72.652,12.907 72.644,12.849 "/>
<polygon fill="#F8B235" points="71.892,12.907 71.892,12.917 71.9,12.995 71.919,13.067 71.958,13.132 72.004,13.188 72.06,13.235 
	72.127,13.267 72.197,13.288 72.271,13.297 72.347,13.288 72.417,13.267 72.482,13.235 72.539,13.188 72.585,13.132 72.623,13.067 
	72.644,12.995 72.652,12.917 72.652,12.907 72.572,12.907 72.572,12.917 72.566,12.98 72.548,13.04 72.522,13.092 72.487,13.137 
	72.445,13.175 72.393,13.206 72.333,13.224 72.271,13.229 72.209,13.224 72.151,13.206 72.099,13.175 72.056,13.137 72.021,13.092 
	71.994,13.04 71.978,12.98 71.972,12.917 71.972,12.907 "/>
<polygon fill="#F8B235" points="72.136,12.907 72.136,13.065 72.204,13.065 72.204,12.929 72.271,12.929 72.352,13.065 
	72.407,13.065 72.325,12.929 72.345,12.929 72.363,12.925 72.379,12.918 72.393,12.907 "/>
<path fill="#FFFFFF" d="M60.127,7.98l-0.021-0.161l-0.038-0.143l-0.053-0.125l-0.067-0.108l-0.081-0.092l-0.09-0.075l-0.096-0.065
	l-0.106-0.048l-0.108-0.042l-0.109-0.026l-0.11-0.019l-0.111-0.011l-0.104-0.003l-0.22,0.011l-0.194,0.033l-0.176,0.048
	l-0.155,0.068l-0.135,0.081l-0.119,0.091l-0.105,0.103L57.84,7.607L57.764,7.72l-0.062,0.119l-0.049,0.116l-0.04,0.116l-0.03,0.114
	l-0.021,0.104L57.547,8.39l-0.012,0.086l-0.014,0.222l0.01,0.198l0.028,0.182l0.046,0.158l0.065,0.144l0.078,0.124l0.091,0.111
	l0.105,0.091l0.113,0.079l0.123,0.067l0.126,0.052l0.132,0.04l0.135,0.034l0.136,0.019l0.134,0.013l0.132,0.002h0.088l0.084-0.002
	h0.073l0.07-0.004L59.353,10l0.057-0.005l0.055-0.006l0.048-0.009l0.046-0.008l0.044-0.01l0.043-0.014l0.04-0.014l0.041-0.016
	l0.043-0.016l0.042-0.021l0.044-0.022l0.107-0.664l-0.079,0.046l-0.075,0.042l-0.079,0.033l-0.075,0.03l-0.072,0.023l-0.076,0.016
	l-0.073,0.015l-0.073,0.01l-0.073,0.006l-0.069,0.002h-0.072l-0.07-0.002l-0.07-0.006l-0.07-0.008l-0.068-0.008l-0.068-0.011
	l-0.055-0.012l-0.055-0.018l-0.054-0.024L58.585,9.3l-0.05-0.032l-0.043-0.04l-0.04-0.041l-0.037-0.046l-0.033-0.045l-0.029-0.051
	l-0.021-0.05l-0.02-0.053L58.3,8.892L58.296,8.84l0.001-0.046l0.008-0.034h1.75l0.014-0.166l0.04-0.227l0.019-0.206V7.98z
	 M59.396,8.229H58.41l0.001-0.002H58.41l0.007-0.038l0.011-0.058l0.016-0.053l0.02-0.054l0.023-0.048l0.025-0.046l0.029-0.044
	l0.033-0.041l0.035-0.037l0.034-0.032l0.041-0.03l0.04-0.024L58.77,7.7l0.046-0.016l0.046-0.012l0.049-0.008l0.052-0.002
	l0.048,0.005l0.047,0.008l0.042,0.011l0.043,0.015l0.04,0.022l0.041,0.024l0.035,0.027l0.032,0.032l0.026,0.037l0.028,0.041
	l0.019,0.046l0.019,0.052l0.01,0.053l0.006,0.06l0.004,0.064L59.396,8.229z"/>
</svg>
