<?xml version="1.0" encoding="utf-8"?>
<!-- Generator: Adobe Illustrator 15.0.2, SVG Export Plug-In  -->
<!DOCTYPE svg PUBLIC "-//W3C//DTD SVG 1.1//EN" "http://www.w3.org/Graphics/SVG/1.1/DTD/svg11.dtd" [
	<!ENTITY ns_flows "http://ns.adobe.com/Flows/1.0/">
]>
<svg version="1.1"
	 xmlns="http://www.w3.org/2000/svg" xmlns:xlink="http://www.w3.org/1999/xlink" xmlns:a="http://ns.adobe.com/AdobeSVGViewerExtensions/3.0/"
	 x="0px" y="0px" width="64px" height="26px" viewBox="0 0 64 26" overflow="visible" enable-background="new 0 0 64 26"
	 xml:space="preserve">
<defs>
</defs>
<path fill="#444444" d="M22.035,25.126c1.218-0.143,2.176-1.109,2.306-2.326c0.102,0,0.072-0.104,0.072-0.174
	c0-2.709,0-5.391,0-8.045c0-0.072,0-0.145-0.072-0.184c-0.071-0.041,0.143-0.182,0.224-0.264c0.082-0.081,0.366-0.366,0.539-0.548
	c0.072,0,0,0.069,0,0.11c0,2.946,0,5.891,0,8.838c0.011,1.646-1.163,3.061-2.783,3.352c-0.335,0.068-0.675,0.098-1.016,0.092
	C15.441,26,9.448,26,3.526,26c-1.708,0.043-3.187-1.18-3.464-2.865c-0.041-0.232-0.061-0.467-0.061-0.701V8.637
	c-0.045-1.883,1.445-3.448,3.33-3.493c0.048,0,0.096,0,0.145,0h18.285c1.789-0.031,3.289,1.345,3.414,3.13
	c0.023,0.132-0.023,0.266-0.122,0.354c-0.224,0.203-0.427,0.426-0.64,0.641c-0.072,0,0-0.081,0-0.112s0-0.356,0-0.528
	c0.04-1.145-0.68-2.181-1.767-2.54l-0.153-0.06c-0.141-0.117-0.327-0.165-0.507-0.134H3.18c-0.142,0-0.324,0-0.426,0.134
	c-0.37,0.127-0.713,0.32-1.016,0.567C1.164,7.094,0.841,7.818,0.854,8.577c0,2.532,0,5.068,0,7.608c0,2.094,0,4.186,0,6.279
	c-0.004,1.15,0.741,2.174,1.839,2.518c0.143,0,0.294,0.062,0.446,0.094c0.153,0.029,0.153,0.059,0.234,0.059h18.59
	c0.039,0.008,0.076-0.021,0.08-0.059c0.001,0,0.001,0,0.001,0L22.035,25.126z"/>
<path fill="#F3991C" d="M11.409,22.027H3.75c-0.634,0.02-1.163-0.479-1.182-1.113c-0.016-0.545,0.355-1.029,0.888-1.15h0.182H19.1
	c0.63-0.061,1.19,0.402,1.25,1.033c0.06,0.633-0.404,1.191-1.035,1.252c-0.072,0.004-0.144,0.004-0.215,0h-7.69V22.027z"/>
<path fill="#F3991C" d="M11.409,10.293h7.649c0.628-0.079,1.203,0.368,1.282,0.995c0.079,0.63-0.366,1.204-0.996,1.283
	c-0.064,0.01-0.129,0.012-0.195,0.007H3.78c-0.633,0.02-1.161-0.48-1.179-1.115c-0.014-0.562,0.382-1.055,0.935-1.158h7.883
	L11.409,10.293z"/>
<path fill="#444444" d="M29.268,8.354c-0.014,0.419-0.202,0.812-0.518,1.087l-4.866,4.875c-0.396,0.396-0.781,0.805-1.188,1.189
	c-0.583,0.543-1.496,0.512-2.039-0.072c-0.161-0.172-0.276-0.381-0.339-0.607c-0.14-0.521,0.025-1.075,0.427-1.434l1.91-1.959
	l4.063-4.064c0.544-0.581,1.457-0.612,2.039-0.069c0.132,0.125,0.241,0.271,0.318,0.436C29.187,7.921,29.253,8.135,29.268,8.354z"/>
<path fill="#F3991C" d="M27.602,6.564c0-0.069,0-0.091,0.071-0.12l4.896-4.908c0.553-0.572,1.467-0.589,2.04-0.036
	c0.167,0.163,0.294,0.363,0.367,0.583c0.194,0.496,0.077,1.055-0.294,1.434c-1.677,1.696-3.363,3.384-5.08,5.078l0,0
	c0.133-0.988-0.562-1.898-1.553-2.032c-0.159-0.019-0.32-0.019-0.479,0H27.602z"/>
<path fill="#F3991C" d="M7.803,17.152H3.739c-0.605,0.014-1.108-0.467-1.123-1.072c-0.012-0.477,0.286-0.904,0.737-1.062
	c0.123-0.041,0.255-0.062,0.385-0.061h8.127c0.605,0,1.097,0.492,1.097,1.098c0.001,0.605-0.491,1.098-1.096,1.098h-0.001H7.803z"/>
<path fill="#444444" d="M39.925,17.537c-0.163,0-0.326,0-0.488,0c-0.163,0-0.173,0-0.193-0.162
	c-0.112-0.549-0.232-1.086-0.346-1.635c0-0.143-0.081-0.193-0.224-0.184c-0.155,0.012-0.312,0.012-0.467,0
	c-0.122,0-0.172,0-0.192,0.162c-0.092,0.539-0.193,1.066-0.275,1.605c0,0.162-0.091,0.213-0.254,0.203c-0.162-0.012-0.559,0-0.832,0
	c-0.102,0-0.143,0-0.123-0.143c0.278-1.559,0.553-3.119,0.824-4.684c0-0.122,0.061-0.172,0.192-0.172h2.215h0.283
	c0.646,0.017,1.156,0.553,1.14,1.196c-0.002,0.12-0.024,0.237-0.062,0.347c-0.105,0.51-0.449,0.938-0.924,1.149
	c-0.122,0.062-0.153,0.113-0.112,0.244c0.163,0.619,0.306,1.25,0.468,1.879c0,0.121,0,0.152-0.111,0.152L39.925,17.537z
	 M38.714,14.712L38.714,14.712c0.184,0,0.367,0,0.55,0c0.339-0.049,0.604-0.32,0.649-0.66c0.051-0.254-0.113-0.5-0.365-0.551
	c-0.03-0.005-0.062-0.007-0.092-0.009h-0.924c-0.092,0-0.133,0-0.152,0.112c-0.051,0.347-0.111,0.681-0.184,1.017
	c0,0.109,0,0.131,0.113,0.121h0.396L38.714,14.712z"/>
<path fill="#444444" d="M36.298,14.46c0.004,0.979-0.396,1.916-1.108,2.588c-0.569,0.521-1.371,0.707-2.112,0.488
	c-0.496-0.131-0.884-0.52-1.016-1.018c-0.357-1.33,0.104-2.749,1.178-3.615c0.547-0.384,1.232-0.51,1.88-0.345
	c0.513,0.141,0.905,0.555,1.016,1.076C36.233,13.899,36.286,14.177,36.298,14.46z M33.138,15.687c-0.006,0.123-0.006,0.244,0,0.367
	c0.041,0.385,0.387,0.662,0.772,0.621c0.13-0.014,0.253-0.064,0.355-0.143c0.132-0.09,0.241-0.201,0.325-0.336
	c0.15-0.248,0.256-0.52,0.314-0.805c0.139-0.459,0.173-0.945,0.103-1.42c-0.042-0.34-0.353-0.582-0.692-0.539
	c-0.034,0.003-0.067,0.01-0.102,0.02c-0.307,0.069-0.565,0.275-0.699,0.56c-0.256,0.527-0.395,1.101-0.407,1.687L33.138,15.687z"/>
<path fill="#444444" d="M43.663,15.382L42.819,16.4c-0.037,0.059-0.059,0.125-0.062,0.191c-0.05,0.285-0.102,0.561-0.143,0.844
	c0,0.111-0.062,0.143-0.173,0.143H41.59c-0.122,0-0.163,0-0.132-0.152c0.172-1.016,0.345-1.941,0.518-2.916
	c0.102-0.588,0.214-1.177,0.305-1.778c0-0.122,0.072-0.153,0.184-0.153h0.853c0.111,0,0.152,0,0.122,0.144
	c-0.122,0.63-0.224,1.259-0.335,1.889c-0.024,0.08-0.024,0.164,0,0.244l0.822-1.015l1.016-1.18c0.059-0.079,0.154-0.127,0.255-0.122
	h1.016c-0.416,0.497-0.793,1.017-1.209,1.424c-0.227,0.205-0.296,0.532-0.173,0.811c0.274,0.846,0.498,1.697,0.742,2.551
	c0.062,0.203,0.062,0.203-0.163,0.203h-0.904c-0.094,0.018-0.184-0.045-0.201-0.139c0-0.004-0.001-0.01-0.001-0.014
	C44.048,16.724,43.866,16.083,43.663,15.382z"/>
<path fill="#444444" d="M52.247,17.609c-0.54,0.053-1.078-0.119-1.484-0.479c-0.215-0.219-0.348-0.506-0.375-0.811
	c0-0.082,0-0.113,0.09-0.135l0.905-0.191c0.091,0,0.11,0,0.142,0.09c0.051,0.326,0.33,0.568,0.661,0.57
	c0.21,0.045,0.429,0.045,0.64,0c0.141-0.043,0.265-0.129,0.355-0.244c0.147-0.146,0.15-0.385,0.004-0.531
	c-0.045-0.047-0.104-0.082-0.166-0.098c-0.27-0.096-0.545-0.17-0.824-0.225c-0.213-0.055-0.42-0.135-0.619-0.232
	c-0.42-0.197-0.653-0.654-0.568-1.108c0.121-0.912,0.861-1.613,1.778-1.688c0.374-0.048,0.756-0.015,1.116,0.103
	c0.428,0.134,0.748,0.486,0.844,0.924c0,0.101,0,0.153-0.092,0.182l-0.832,0.266c-0.072,0-0.102,0-0.133-0.071
	c-0.199-0.434-0.711-0.625-1.145-0.426c-0.06,0.028-0.114,0.062-0.166,0.101c-0.18,0.124-0.224,0.373-0.098,0.553
	c0.049,0.069,0.118,0.123,0.199,0.148c0.203,0.066,0.41,0.119,0.62,0.162c0.204,0.061,0.417,0.113,0.62,0.184
	c0.592,0.195,0.925,0.822,0.751,1.424c-0.182,0.748-0.771,1.33-1.524,1.502C52.716,17.621,52.479,17.63,52.247,17.609z"/>
<path fill="#444444" d="M56.513,17.609c-0.373,0.02-0.744-0.057-1.077-0.225c-0.393-0.197-0.659-0.58-0.711-1.016
	c0-0.09,0-0.121,0.102-0.143l0.905-0.191c0.1,0,0.111,0,0.131,0.09c0.053,0.312,0.314,0.543,0.629,0.559
	c0.177,0.029,0.355,0.029,0.529,0c0.19-0.023,0.363-0.117,0.487-0.264c0.154-0.139,0.165-0.379,0.024-0.531
	c-0.047-0.053-0.108-0.092-0.176-0.107c-0.213-0.082-0.43-0.141-0.65-0.184c-0.208-0.049-0.412-0.113-0.61-0.193
	c-0.546-0.129-0.886-0.674-0.757-1.222c0.014-0.058,0.031-0.114,0.056-0.17c0.204-0.823,0.913-1.421,1.758-1.483
	c0.451-0.064,0.911,0.005,1.321,0.203c0.32,0.178,0.548,0.486,0.619,0.843c0,0.081,0,0.134-0.081,0.153l-0.843,0.263
	c-0.082,0-0.103,0-0.133-0.069c-0.209-0.436-0.732-0.617-1.166-0.409c-0.059,0.028-0.113,0.064-0.164,0.103
	c-0.174,0.127-0.211,0.369-0.086,0.541c0.049,0.067,0.118,0.116,0.197,0.141c0.244,0.102,0.518,0.123,0.771,0.191
	c0.254,0.072,0.314,0.082,0.469,0.145c0.604,0.197,0.941,0.842,0.76,1.451c-0.219,0.797-0.887,1.391-1.705,1.514
	C56.913,17.621,56.712,17.623,56.513,17.609z"/>
<path fill="#444444" d="M61.085,17.537h-1.606c-0.122,0-0.173,0-0.151-0.162c0.277-1.559,0.551-3.119,0.822-4.684
	c0-0.112,0.061-0.141,0.173-0.141h3.251c0.122,0,0.162,0,0.131,0.15c-0.049,0.216-0.086,0.434-0.111,0.651
	c0,0.122-0.061,0.153-0.183,0.153h-2.032c-0.133,0-0.193,0-0.203,0.172c-0.023,0.225-0.061,0.45-0.111,0.67
	c0,0.141,0,0.182,0.142,0.182h1.534c0.133,0,0.162,0,0.133,0.162c-0.048,0.207-0.085,0.412-0.113,0.621
	c0,0.131-0.061,0.172-0.201,0.172h-1.545c-0.122,0-0.172,0-0.193,0.162c-0.02,0.164-0.071,0.488-0.133,0.732
	c-0.06,0.244,0,0.193,0.154,0.193h2.031c0.162,0,0.192,0,0.152,0.191c-0.049,0.199-0.082,0.398-0.102,0.602
	c0,0.162-0.071,0.213-0.244,0.213L61.085,17.537z"/>
<path fill="#444444" d="M45.643,17.537l0.234-0.498c0.711-1.434,1.422-2.874,2.123-4.317c0.043-0.127,0.173-0.205,0.306-0.184
	c0.334,0,0.67,0,1.016,0c0.121,0,0.161,0,0.172,0.162c0.209,1.565,0.42,3.131,0.629,4.696c0,0.1,0,0.131-0.111,0.131h-1.016
	c-0.111,0-0.121-0.049-0.131-0.131c0-0.256-0.062-0.498-0.093-0.754c-0.03-0.254,0-0.141-0.151-0.141h-1.342
	c-0.082-0.01-0.159,0.043-0.184,0.121l-0.375,0.783c0,0.051,0,0.121-0.122,0.121L45.643,17.537z M47.604,15.587h0.923
	c0.081,0,0.112,0,0.103-0.113c-0.01-0.109,0-0.264,0-0.395l-0.143-1.159l0,0L47.604,15.587z"/>
<path fill="#444444" d="M32.325,12.55l-0.68,1.44l-1.595,3.375c-0.035,0.125-0.158,0.203-0.285,0.182c-0.305,0-0.61,0-0.905,0
	c-0.131,0-0.172,0-0.183-0.162c-0.152-1.301-0.314-2.6-0.478-3.891c0-0.254-0.061-0.518-0.1-0.771c-0.041-0.253,0-0.172,0.131-0.162
	h0.944c0.122,0,0.153,0,0.163,0.162c0.112,1.108,0.224,2.213,0.346,3.323c0.082,0,0.071-0.072,0.091-0.123l1.484-3.19
	c0.034-0.107,0.141-0.177,0.254-0.162L32.325,12.55z"/>
<path fill="#444444" d="M17.372,14.908L17.372,14.908c-0.182,0-0.345,0.068-0.376-0.234c-0.037-0.223-0.246-0.371-0.468-0.336
	c-0.013,0.002-0.026,0.008-0.04,0.01c-0.331,0.074-0.596,0.322-0.691,0.65c0,0.102,0,0.092,0.092,0.092h0.487
	c0.102,0,0.112,0,0.102,0.121c0,0.387,0,0.387-0.426,0.387h-0.305c-0.082,0-0.122,0-0.143,0.111c0,0.326-0.091,0.264,0.224,0.275
	h0.396c0.081,0,0.122,0,0.102,0.109l0,0c0,0.367,0,0.367-0.427,0.367l0,0c-0.355,0-0.375,0-0.253,0.365
	c0.088,0.271,0.381,0.42,0.653,0.33c0.054-0.016,0.104-0.043,0.149-0.076c0.149-0.109,0.263-0.26,0.326-0.438
	c0.018-0.086,0.105-0.145,0.192-0.125c0.004,0.002,0.007,0.002,0.01,0.002h0.793c0.091,0,0.121,0,0.08,0.113
	c-0.276,0.996-1.307,1.578-2.302,1.299c-0.031-0.01-0.063-0.018-0.095-0.027c-0.428-0.09-0.766-0.42-0.864-0.846
	c-0.051-0.154-0.079-0.32-0.082-0.486c0-0.133,0-0.193-0.172-0.162c-0.172,0.029-0.142,0-0.122-0.131
	c0.004-0.076,0.004-0.15,0-0.225c0-0.092,0-0.143,0.152-0.143c0.153,0,0.122-0.193,0.153-0.307c0.03-0.109-0.081-0.068-0.133-0.068
	c-0.05,0-0.081,0-0.07-0.082c0.009-0.08,0-0.234,0.061-0.355c0.061-0.123,0.07-0.092,0.122-0.072c0.05,0.021,0.203,0,0.253-0.172
	c0.226-0.673,0.777-1.185,1.463-1.362c0.332-0.094,0.683-0.094,1.016,0c0.503,0.164,0.85,0.629,0.863,1.159
	c0,0.102,0,0.133-0.122,0.133h-0.6V14.908z"/>
<path fill="#444444" d="M41.194,22.21l0.578-1.586l0,0c0.223-0.59,0.062-0.436,0.661-0.467c0.142,0,0.161,0.051,0.161,0.184
	c0,0.578,0,1.146,0,1.727v0.184l0,0l0.316-0.904c0.121-0.336,0.242-0.682,0.344-1.018c0.021-0.115,0.13-0.191,0.244-0.172
	c0.427,0,0.427,0,0.274,0.406c-0.346,0.883-0.69,1.779-1.016,2.662c-0.025,0.105-0.126,0.176-0.233,0.162
	c-0.468,0-0.468,0-0.478-0.457c-0.011-0.457,0-1.098,0-1.688l-0.528,1.424c-0.07,0.191-0.152,0.385-0.213,0.59
	c-0.015,0.088-0.099,0.148-0.188,0.131c-0.002,0-0.004,0-0.006,0c-0.152,0-0.335,0-0.447,0c-0.111,0,0-0.264-0.051-0.406
	c0-0.416,0-0.844-0.061-1.27c-0.061-0.428,0-0.904,0-1.361c0-0.121,0-0.172,0.152-0.162h0.396c0.133,0,0.174,0,0.174,0.172
	c0,0.588,0,1.189,0,1.777C41.163,22.13,41.143,22.169,41.194,22.21z"/>
<path fill="#444444" d="M34.702,21.691c0.33,0.168,0.469,0.568,0.314,0.904c-0.088,0.398-0.418,0.695-0.822,0.742
	c-0.46,0.027-0.922,0.027-1.381,0c-0.163,0-0.133-0.111-0.113-0.193c0.062-0.365,0.123-0.732,0.194-1.096
	c0.102-0.57,0.204-1.139,0.304-1.719c0-0.15,0.072-0.223,0.255-0.213c0.446-0.023,0.894-0.023,1.341,0
	c0.226,0.033,0.402,0.211,0.436,0.438c0.09,0.402-0.096,0.814-0.457,1.016L34.702,21.691z M33.829,21.935
	c-0.265,0-0.273,0-0.295,0.113c-0.02,0.109-0.071,0.404-0.111,0.607c-0.041,0.203,0,0.113,0.08,0.113
	c0.189,0.023,0.383,0,0.56-0.072c0.179-0.109,0.274-0.318,0.244-0.527c0-0.174-0.143-0.234-0.396-0.234H33.829z M33.899,21.406
	c0.082,0.016,0.164,0.016,0.244,0c0.201-0.072,0.329-0.271,0.314-0.486c0-0.184-0.131-0.242-0.396-0.242h-0.132
	c-0.112,0-0.162,0-0.174,0.141c-0.01,0.141,0,0.264-0.07,0.385c-0.07,0.123,0,0.234,0.254,0.234L33.899,21.406z"/>
<path fill="#444444" d="M39.508,23.357c-0.397,0-0.397,0-0.447-0.385s-0.081-0.498-0.111-0.752
	c-0.031-0.254-0.062-0.152-0.174-0.143c-0.11,0.012-0.192,0-0.224,0.133c0,0.336-0.121,0.67-0.172,1.016
	c0,0.111-0.062,0.152-0.173,0.141h-0.416c-0.133,0-0.153-0.051-0.133-0.16c0.173-1.018,0.346-1.951,0.519-2.928
	c0-0.121,0.071-0.141,0.173-0.131h1.017c0.619,0,0.893,0.314,0.812,0.924c-0.018,0.309-0.175,0.594-0.427,0.773
	c-0.125,0.068-0.172,0.225-0.111,0.354c0.081,0.316,0.162,0.641,0.244,0.955c0.081,0.316,0.051,0.213-0.163,0.213L39.508,23.357z
	 M39.029,20.666c-0.151,0-0.254,0-0.254,0.234c-0.012,0.105-0.032,0.211-0.062,0.314c-0.061,0.387,0,0.436,0.396,0.324l0,0
	c0.221-0.117,0.346-0.359,0.316-0.607c0-0.186-0.143-0.254-0.438-0.254L39.029,20.666z"/>
<path fill="#444444" d="M53.362,21.154c-0.12,0.67-0.242,1.34-0.355,2.031c0,0.172-0.102,0.213-0.253,0.203
	c-0.325,0-0.335,0-0.274-0.316c0.152-0.902,0.314-1.797,0.467-2.701c0-0.15,0.082-0.232,0.244-0.203l0,0c0.57,0,0.559,0,0.682,0.561
	c0.121,0.557,0.203,0.873,0.334,1.309l0.193-1.016c0-0.223,0.081-0.447,0.112-0.67c0.03-0.225,0-0.131,0.142-0.131
	c0.447,0,0.447,0,0.365,0.416c-0.151,0.883-0.314,1.766-0.457,2.652c0,0.131-0.081,0.16-0.192,0.16c-0.457,0-0.457,0-0.568-0.436
	l-0.438-1.779V21.154z"/>
<path fill="#444444" d="M57.03,23.013c-0.225,0.27-0.563,0.416-0.914,0.395c-0.348-0.006-0.656-0.229-0.771-0.559
	c-0.16-0.535-0.125-1.111,0.102-1.625c0.109-0.365,0.334-0.686,0.641-0.914c0.299-0.197,0.666-0.262,1.016-0.184
	c0.324,0.061,0.565,0.332,0.588,0.66c0,0.398,0,0.398-0.346,0.469h-0.111c-0.131,0-0.203,0-0.192-0.152
	c0.032-0.176-0.062-0.348-0.224-0.416c-0.181-0.064-0.382,0.002-0.488,0.162c-0.045,0.045-0.082,0.096-0.111,0.15
	c-0.197,0.441-0.292,0.922-0.273,1.402c-0.012,0.191,0.118,0.363,0.305,0.408c0.19,0.037,0.383-0.053,0.478-0.223l0.05-0.104
	c0.123-0.273,0.102-0.314-0.192-0.305c-0.296,0.01-0.194,0-0.163-0.184c0.07-0.375,0.07-0.385,0.447-0.385h0.609
	c0.102,0,0.132,0,0.111,0.143c-0.091,0.486-0.183,1.016-0.254,1.453c0,0.131-0.09,0.141-0.192,0.141c-0.102,0-0.163,0-0.153-0.162
	C57.001,23.023,57.041,23.103,57.03,23.013z"/>
<path fill="#444444" d="M30.842,20.148c0.345,0,0.345,0,0.285,0.344c-0.102,0.58-0.203,1.168-0.305,1.748
	c-0.004,0.053-0.004,0.104,0,0.152c0,0.285,0.061,0.398,0.274,0.436c0.226,0.039,0.446-0.096,0.518-0.312
	c0.082-0.289,0.143-0.586,0.184-0.883c0.08-0.447,0.162-0.896,0.232-1.344c0-0.109,0.062-0.141,0.173-0.141
	c0.569,0,0.457-0.062,0.376,0.447c-0.08,0.508-0.213,1.229-0.336,1.838c-0.111,0.658-0.736,1.102-1.395,0.986
	c-0.047-0.008-0.094-0.018-0.139-0.031c-0.369-0.023-0.648-0.344-0.623-0.713c0.002-0.033,0.007-0.066,0.014-0.102
	c0.061-0.77,0.253-1.512,0.355-2.273c-0.002-0.086,0.063-0.154,0.147-0.156c0.016-0.004,0.031,0,0.045,0.004H30.842z"/>
<path fill="#444444" d="M49.859,22.453c0-0.508,0.192-1.117,0.284-1.725v-0.051c0.102-0.57,0.102-0.57,0.68-0.529
	c0.111,0,0.123,0,0.102,0.141c-0.111,0.643-0.223,1.291-0.334,1.932c-0.004,0.057-0.004,0.115,0,0.172
	c0,0.275,0.05,0.387,0.264,0.436c0.21,0.043,0.422-0.062,0.519-0.254c0.077-0.205,0.128-0.42,0.151-0.639
	c0.102-0.537,0.193-1.076,0.274-1.625c0-0.111,0.062-0.162,0.183-0.162c0.519,0,0.457-0.072,0.377,0.436
	c-0.082,0.51-0.214,1.199-0.326,1.809c-0.079,0.68-0.695,1.166-1.375,1.088c-0.1-0.014-0.197-0.037-0.291-0.072
	C49.991,23.275,49.849,23.031,49.859,22.453z"/>
<path fill="#444444" d="M48.142,23.408c-0.46,0.066-0.886-0.252-0.954-0.711c0-0.109,0-0.203,0.132-0.213h0.162
	c0.094-0.041,0.193-0.061,0.295-0.061s0.061,0.164,0.102,0.244c0.069,0.15,0.229,0.242,0.396,0.223
	c0.182-0.002,0.343-0.115,0.406-0.285c0.059-0.158-0.022-0.332-0.181-0.393c-0.003,0-0.009-0.002-0.013-0.002l-0.386-0.162
	c-0.448-0.146-0.696-0.625-0.552-1.074c0.039-0.117,0.102-0.229,0.186-0.318c0.32-0.453,0.904-0.633,1.423-0.436
	c0.247,0.078,0.426,0.291,0.467,0.547c0,0.092,0,0.143-0.091,0.174l-0.265,0.1c-0.151,0.072-0.265,0.113-0.325-0.121
	c-0.053-0.145-0.207-0.223-0.355-0.184c-0.154,0.016-0.283,0.125-0.324,0.275c0,0.143,0,0.232,0.152,0.285l0.457,0.213
	c0.457,0.166,0.694,0.672,0.528,1.133c-0.048,0.129-0.124,0.246-0.224,0.34C48.917,23.279,48.534,23.433,48.142,23.408z"/>
<path fill="#444444" d="M44.627,23.367h-0.792c-0.132,0-0.172,0-0.143-0.172c0.174-0.965,0.346-1.92,0.508-2.885
	c0-0.131,0.071-0.162,0.204-0.162h1.614c0.143,0,0.174,0,0.143,0.172c-0.082,0.385-0.07,0.385-0.478,0.385c-0.224,0-0.437,0-0.661,0
	c-0.223,0-0.182,0-0.192,0.164c-0.016,0.137-0.04,0.271-0.07,0.406c0,0.123,0,0.162,0.122,0.162h0.659c0.122,0,0.153,0,0.122,0.154
	c-0.082,0.404-0.07,0.416-0.498,0.416h-0.324c-0.162,0-0.234,0-0.255,0.213c-0.013,0.137-0.037,0.273-0.07,0.406
	c0,0.123,0,0.152,0.132,0.152h0.904c0.122,0,0.172,0,0.143,0.162c-0.092,0.438-0.082,0.438-0.529,0.438L44.627,23.367z"/>
<path fill="#444444" d="M36.876,20.148h0.812c0.133,0,0.164,0.051,0.143,0.172l0,0c-0.061,0.377-0.061,0.377-0.447,0.377h-0.721
	c-0.102,0-0.142,0-0.152,0.131c-0.016,0.158-0.043,0.312-0.082,0.469c0,0.109,0,0.133,0.113,0.133h0.68c0.112,0,0.143,0,0.121,0.15
	c-0.061,0.416-0.061,0.416-0.486,0.416h-0.061c-0.163,0-0.407-0.07-0.469,0c-0.084,0.211-0.133,0.436-0.143,0.66
	c0,0.094,0.072,0.072,0.123,0.072h0.904c0.143,0,0.192,0,0.162,0.182c-0.092,0.416-0.081,0.416-0.518,0.416h-1.342
	c-0.121,0-0.162,0-0.143-0.16c0.174-1.018,0.336-1.932,0.51-2.904c0-0.113,0.061-0.164,0.183-0.154L36.876,20.148z"/>
<path fill="#444444" d="M46.313,23.357c-0.355,0-0.365,0-0.305-0.365c0.152-0.893,0.314-1.789,0.467-2.682
	c0-0.111,0.061-0.184,0.193-0.172c0.132,0.01,0.406-0.072,0.508,0c0.102,0.07,0,0.336,0,0.498c-0.143,0.811-0.295,1.625-0.426,2.436
	c0,0.203-0.102,0.275-0.296,0.244L46.313,23.357z"/>
<path fill="#444444" d="M36.236,0.604c-0.009,0.122-0.063,0.239-0.153,0.325l-0.761,0.761c-0.071,0.072-0.102,0.082-0.163,0
	c-0.13-0.239-0.318-0.442-0.549-0.588c-0.08-0.05-0.07-0.091,0-0.153c0.255-0.244,0.498-0.507,0.752-0.742
	c0.254-0.232,0.244-0.232,0.427-0.172C36.054,0.096,36.239,0.333,36.236,0.604z"/>
<path d="M2.744,6.017c0.112-0.15,0.285-0.091,0.427-0.132h18.752c0.181-0.031,0.365,0.017,0.507,0.132
	c-0.262-0.041-0.526-0.06-0.792-0.06H3.536C3.271,5.954,3.006,5.976,2.744,6.017z"/>
<path d="M22.035,25.126c-0.005,0.037-0.041,0.066-0.08,0.059c0,0,0,0-0.001,0H3.354c-0.072,0-0.183,0.062-0.235-0.059H22.035z"/>
<path fill="#F3991C" d="M20.907,16.054l-1.554,0.67l0.701-1.615C20.222,15.513,20.523,15.845,20.907,16.054z"/>
<path d="M24.351,14.41c0.091,0,0.071,0.109,0.071,0.182v8.045c0,0.061,0,0.143-0.071,0.174
	C24.351,20.003,24.351,17.205,24.351,14.41z"/>
<path fill="#444444" d="M31.34,19.347c0.106-0.004,0.192,0.082,0.194,0.191c0,0.006,0,0.014-0.002,0.021
	c-0.004,0.166-0.146,0.299-0.313,0.293c-0.003,0-0.008,0-0.012,0c-0.132,0-0.223-0.08-0.213-0.234
	C31.016,19.449,31.169,19.328,31.34,19.347z"/>
<path fill="#444444" d="M32.144,19.347c0.09,0,0.172,0.068,0.182,0.221c-0.021,0.166-0.158,0.291-0.324,0.295
	c-0.119-0.004-0.215-0.096-0.225-0.213C31.798,19.498,31.929,19.347,32.144,19.347z"/>
</svg>
