<?xml version="1.0" encoding="utf-8"?>
<!-- Generator: Adobe Illustrator 15.0.2, SVG Export Plug-In  -->
<!DOCTYPE svg PUBLIC "-//W3C//DTD SVG 1.1//EN" "http://www.w3.org/Graphics/SVG/1.1/DTD/svg11.dtd" [
	<!ENTITY ns_flows "http://ns.adobe.com/Flows/1.0/">
]>
<svg version="1.1"
	 xmlns="http://www.w3.org/2000/svg" xmlns:xlink="http://www.w3.org/1999/xlink" xmlns:a="http://ns.adobe.com/AdobeSVGViewerExtensions/3.0/"
	 x="0px" y="0px" width="200px" height="79px" viewBox="0 0 200 79" overflow="visible" enable-background="new 0 0 200 79"
	 xml:space="preserve">
<defs>
</defs>
<linearGradient id="path3144_2_" gradientUnits="userSpaceOnUse" x1="573.6777" y1="-776.4214" x2="573.6777" y2="-800.593" gradientTransform="matrix(1.632 0 0 -1.632 -795.0475 -1227.7043)">
	<stop  offset="0" style="stop-color:#FF0000"/>
	<stop  offset="1" style="stop-color:#C00000"/>
</linearGradient>
<path id="path3144_1_" fill="url(#path3144_2_)" d="M141.195,0c-0.003,0-47.451,0.07-53.092,5.712
	c-5.652,5.651-5.661,33.553-5.661,33.712v0.051c0,0.159,0.009,28.01,5.661,33.661c5.641,5.642,53.089,5.763,53.092,5.763
	c0.004,0,47.451-0.121,53.093-5.763C199.955,67.468,200,39.425,200,39.424c0-0.159-0.061-28.061-5.712-33.712
	C188.646,0.07,141.199,0,141.195,0z"/>
<linearGradient id="path6082_2_" gradientUnits="userSpaceOnUse" x1="590.6816" y1="-746.9331" x2="581.1127" y2="-763.507" gradientTransform="matrix(1.632 0 0 -1.632 -795.0475 -1227.7043)">
	<stop  offset="0" style="stop-color:#FFFFFF"/>
	<stop  offset="1" style="stop-color:#FFFFFF;stop-opacity:0"/>
</linearGradient>
<path id="path6082_1_" fill="url(#path6082_2_)" d="M141.196,2.375c-0.003,0-45.475,0.066-50.881,5.368
	c-5.416,5.312-5.425,31.532-5.425,31.683c0,0,0,0.047,0,0.048c0,0.149,0.009,26.323,5.425,31.634
	c5.406,5.302,50.878,5.417,50.881,5.417s45.476-0.115,50.882-5.417c5.432-5.326,5.474-31.682,5.474-31.682
	c0-0.15-0.058-26.371-5.474-31.683C186.672,2.441,141.199,2.375,141.196,2.375z"/>
<path id="path9122_1_" fill="#FFFFFF" d="M121.434,65.508c-1.246-0.544-2.58-2.209-3.127-3.902
	c-0.421-1.307-0.493-3.456-0.604-17.906l-0.125-16.421h3.692h3.692l0.008,14.025c0.007,14.566,0.109,16.049,1.187,17.196
	c0.812,0.864,2.439,0.864,3.249,0c1.311-1.399,1.322-1.537,1.419-16.773l0.091-14.448h3.508h3.508v18.888v18.889h-3.383h-3.383
	l-0.007-2.326l-0.006-2.325l-0.572,1.26c-1.433,3.16-3.032,4.243-6.241,4.227C123.21,65.883,121.902,65.711,121.434,65.508z"/>
<path id="path9120_1_" fill="#FFFFFF" d="M155.26,65.52c-1.105-0.499-2.542-1.943-3.229-3.244l-0.542-1.026l-0.013,1.902
	l-0.013,1.903h-3.383h-3.383V39.964v-25.09h3.523h3.524v7.808v7.808l0.812-1.28c0.447-0.704,1.24-1.586,1.763-1.958
	c0.837-0.597,1.257-0.678,3.533-0.678c2.417,0,2.661,0.055,3.79,0.849c1.354,0.951,2.354,2.659,3.008,5.139
	c0.545,2.068,0.844,21.794,0.375,24.802c-0.62,3.98-1.74,6.29-3.785,7.806C160.24,65.909,156.594,66.124,155.26,65.52z
	 M156.104,58.959c0.252-0.097,0.738-0.699,1.08-1.34c0.6-1.121,0.626-1.502,0.714-10.466c0.05-5.117,0.009-9.974-0.092-10.793
	c-0.253-2.061-1.097-3.008-2.678-3.008c-1.413,0-2.307,0.851-2.88,2.74c-0.507,1.67-0.506,18.45,0.002,20.139
	C152.945,58.548,154.433,59.6,156.104,58.959z"/>
<path id="path9116_1_" fill="#FFFFFF" d="M177.365,65.431c-3.248-1.084-5.395-3.873-6.366-8.27
	c-0.706-3.196-0.722-20.227-0.021-22.761c1.08-3.904,3.387-6.702,6.217-7.542c1.955-0.581,6.217-0.558,8.079,0.044
	c1.748,0.564,3.767,2.267,4.583,3.863c1.229,2.403,1.42,3.711,1.561,10.679l0.135,6.695h-6.971h-6.973l0.132,4.018
	c0.157,4.83,0.509,5.927,2.113,6.597c2.612,1.092,4.311-0.726,4.311-4.612v-2.055h3.665h3.664l-0.004,2.044
	c-0.014,5.627-2.217,9.85-5.847,11.208C183.764,66.043,179.344,66.092,177.365,65.431z M184.39,38.484
	c-0.161-3.571-0.592-4.556-2.2-5.038c-0.873-0.262-1.377-0.262-2.252,0c-1.607,0.482-2.037,1.467-2.199,5.038l-0.131,2.89h3.457
	h3.457L184.39,38.484z"/>
<path id="path9112_1_" fill="#FFFFFF" d="M101.847,43.629V22.204h-4.37h-4.37v-3.665v-3.665h12.545h12.545v3.665v3.665h-4.369h-4.37
	v21.425v21.426h-3.806h-3.806V43.629z"/>
<linearGradient id="path9110_2_" gradientUnits="userSpaceOnUse" x1="382.7109" y1="-777.1958" x2="382.7109" y2="-745.3216" gradientTransform="matrix(1.632 0 0 -1.632 -586.4352 -1201.7864)">
	<stop  offset="0" style="stop-color:#000000"/>
	<stop  offset="1" style="stop-color:#404040"/>
</linearGradient>
<path id="path9110_1_" fill="url(#path9110_2_)" d="M35.701,66.494c-4.231-0.444-6.576-2.851-7.746-7.949
	c-0.846-3.687-0.752-20.484,0.135-24.229c0.623-2.63,1.598-4.451,3.145-5.877c1.811-1.669,3.649-2.16,7.618-2.036
	c2.768,0.086,3.268,0.187,4.778,0.96c2.892,1.48,4.278,4.034,4.998,9.208c0.5,3.591,0.415,18.101-0.124,21.204
	c-0.542,3.125-1.786,5.818-3.247,7.029C43.45,66.302,39.88,66.934,35.701,66.494z M39.85,59.245
	c1.699-0.71,1.762-1.156,1.762-12.517c0-7.831-0.09-10.44-0.388-11.284c-0.963-2.725-4.651-2.911-5.947-0.3
	c-0.503,1.015-0.56,1.925-0.644,10.506c-0.099,10.093,0.077,12.044,1.181,13.062C36.849,59.666,38.364,59.866,39.85,59.245z"/>
<linearGradient id="path9106_2_" gradientUnits="userSpaceOnUse" x1="398.3584" y1="-777.2046" x2="398.3584" y2="-745.3304" gradientTransform="matrix(1.632 0 0 -1.632 -586.4352 -1201.7864)">
	<stop  offset="0" style="stop-color:#000000"/>
	<stop  offset="1" style="stop-color:#404040"/>
</linearGradient>
<path id="path9106_1_" fill="url(#path9106_2_)" d="M57.269,66.126c-1.269-0.553-2.627-2.247-3.183-3.972
	c-0.428-1.329-0.502-3.518-0.615-18.224l-0.127-16.714h3.758h3.759l0.007,14.275c0.007,14.825,0.112,16.335,1.208,17.502
	c0.826,0.88,2.482,0.88,3.307,0c1.334-1.424,1.346-1.564,1.444-17.072l0.093-14.705h3.57h3.57v19.225v19.224h-3.443h-3.443
	l-0.006-2.367l-0.006-2.366l-0.582,1.282c-1.459,3.217-3.086,4.318-6.352,4.301C59.076,66.509,57.745,66.334,57.269,66.126z"/>
<linearGradient id="path9047_2_" gradientUnits="userSpaceOnUse" x1="368.2461" y1="-777.2046" x2="368.2461" y2="-745.3309" gradientTransform="matrix(1.632 0 0 -1.632 -586.4352 -1201.7864)">
	<stop  offset="0" style="stop-color:#000000"/>
	<stop  offset="1" style="stop-color:#404040"/>
</linearGradient>
<path id="path9047_1_" fill="url(#path9047_2_)" d="M10.554,54.843V44.02L5.351,29.665C2.489,21.77,0.085,15.145,0.009,14.943
	c-0.109-0.289,0.782-0.35,4.239-0.287l4.378,0.079l2.538,7.987c1.396,4.394,2.719,8.848,2.938,9.899
	c0.419,2.001,0.505,1.968,1.035-0.399c0.179-0.797,1.463-5.059,2.855-9.469l2.531-8.019l4.374-0.079
	c4.09-0.074,4.361-0.046,4.178,0.431c-0.108,0.28-2.576,6.978-5.485,14.882l-5.289,14.373v10.662v10.661h-3.874h-3.874V54.843z"/>
</svg>
